<?xml version="1.0" encoding="UTF-8" standalone="no"?><svg xmlns="http://www.w3.org/2000/svg" xmlns:xlink="http://www.w3.org/1999/xlink" contentScriptType="application/ecmascript" contentStyleType="text/css" height="257px" preserveAspectRatio="none" style="width:361px;height:257px;" version="1.1" viewBox="0 0 361 257" width="361px" zoomAndPan="magnify"><defs><filter height="300%" id="fh4qfko9jbubs" width="300%" x="-1" y="-1"><feGaussianBlur result="blurOut" stdDeviation="2.0"/><feColorMatrix in="blurOut" result="blurOut2" type="matrix" values="0 0 0 0 0 0 0 0 0 0 0 0 0 0 0 0 0 0 .4 0"/><feOffset dx="4.0" dy="4.0" in="blurOut2" result="blurOut3"/><feBlend in="SourceGraphic" in2="blurOut3" mode="normal"/></filter></defs><g><!--MD5=[8e4cb301d1407ec6dc2a5453b1f4ea1e]
class MobilePlan.util.MobilePhoneContractHomeAddressMatcher--><a href="MobilePhoneContractHomeAddressMatcher.html" target="_top" title="MobilePhoneContractHomeAddressMatcher.html" xlink:actuate="onRequest" xlink:href="MobilePhoneContractHomeAddressMatcher.html" xlink:show="new" xlink:title="MobilePhoneContractHomeAddressMatcher.html" xlink:type="simple"><rect codeLine="5" fill="#FEFECE" filter="url(#fh4qfko9jbubs)" height="92.3516" id="MobilePlan.util.MobilePhoneContractHomeAddressMatcher" style="stroke: #A80036; stroke-width: 1.5;" width="335" x="7" y="129"/><ellipse cx="22" cy="147.9688" fill="#ADD1B2" rx="11" ry="11" style="stroke: #A80036; stroke-width: 1.0;"/><path d="M24.9688,153.6094 Q24.3906,153.9063 23.75,154.0469 Q23.1094,154.2031 22.4063,154.2031 Q19.9063,154.2031 18.5781,152.5625 Q17.2656,150.9063 17.2656,147.7813 Q17.2656,144.6563 18.5781,143 Q19.9063,141.3438 22.4063,141.3438 Q23.1094,141.3438 23.75,141.5 Q24.4063,141.6563 24.9688,141.9531 L24.9688,144.6719 Q24.3438,144.0938 23.75,143.8281 Q23.1563,143.5469 22.5313,143.5469 Q21.1875,143.5469 20.5,144.625 Q19.8125,145.6875 19.8125,147.7813 Q19.8125,149.875 20.5,150.9531 Q21.1875,152.0156 22.5313,152.0156 Q23.1563,152.0156 23.75,151.75 Q24.3438,151.4688 24.9688,150.8906 L24.9688,153.6094 Z "/><text fill="#000000" font-family="sans-serif" font-size="14" lengthAdjust="spacingAndGlyphs" textLength="303" x="36" y="146.9951">MobilePhoneContractHomeAddressMatcher</text><text fill="#000000" font-family="sans-serif" font-size="10" lengthAdjust="spacingAndGlyphs" textLength="69" x="153" y="159.5791">MobilePlan.util</text><line style="stroke: #A80036; stroke-width: 1.5;" x1="8" x2="341" y1="166.9375" y2="166.9375"/><rect fill="none" height="6" style="stroke: #C82930; stroke-width: 1.0;" width="6" x="15" y="174.9375"/><text fill="#000000" font-family="sans-serif" font-size="11" lengthAdjust="spacingAndGlyphs" textLength="83" x="27" y="181.1479">pattern: String</text><line style="stroke: #A80036; stroke-width: 1.5;" x1="8" x2="341" y1="187.7422" y2="187.7422"/><ellipse cx="18" cy="198.7422" fill="#84BE84" rx="3" ry="3" style="stroke: #038048; stroke-width: 1.0;"/><text fill="#000000" font-family="sans-serif" font-size="11" lengthAdjust="spacingAndGlyphs" textLength="286" x="27" y="201.9526">MobilePhoneContractHomeAddressMatcher(String)</text><ellipse cx="18" cy="211.5469" fill="#84BE84" rx="3" ry="3" style="stroke: #038048; stroke-width: 1.0;"/><text fill="#000000" font-family="sans-serif" font-size="11" lengthAdjust="spacingAndGlyphs" textLength="229" x="27" y="214.7573">matches(MobilePhoneContract): boolean</text></a><!--MD5=[944498ecafbea52f6158a9928cc1ec29]
class MobilePlan.provided.Matcher--><a href="../provided/Matcher.html" target="_top" title="../provided/Matcher.html" xlink:actuate="onRequest" xlink:href="../provided/Matcher.html" xlink:show="new" xlink:title="../provided/Matcher.html" xlink:type="simple"><rect codeLine="11" fill="#FEFECE" filter="url(#fh4qfko9jbubs)" height="58.7422" id="MobilePlan.provided.Matcher" style="stroke: #A80036; stroke-width: 1.5;" width="268" x="40.5" y="10"/><ellipse cx="55.5" cy="28.9688" fill="#B4A7E5" rx="11" ry="11" style="stroke: #A80036; stroke-width: 1.0;"/><path d="M51.4219,24.7344 L51.4219,22.5781 L58.8125,22.5781 L58.8125,24.7344 L56.3438,24.7344 L56.3438,32.8125 L58.8125,32.8125 L58.8125,34.9688 L51.4219,34.9688 L51.4219,32.8125 L53.8906,32.8125 L53.8906,24.7344 L51.4219,24.7344 Z "/><text fill="#000000" font-family="sans-serif" font-size="14" font-style="italic" lengthAdjust="spacingAndGlyphs" textLength="56" x="91" y="27.9951">Matcher</text><text fill="#000000" font-family="sans-serif" font-size="10" font-style="italic" lengthAdjust="spacingAndGlyphs" textLength="99" x="69.5" y="40.5791">MobilePlan.provided</text><rect fill="#FFFFFF" height="15.9688" style="stroke: #000000; stroke-width: 1.0; stroke-dasharray: 2.0,2.0;" width="135" x="176.5" y="7"/><text fill="#000000" font-family="sans-serif" font-size="12" font-style="italic" lengthAdjust="spacingAndGlyphs" textLength="133" x="177.5" y="19.1387">MobilePhoneContract</text><line style="stroke: #A80036; stroke-width: 1.5;" x1="41.5" x2="307.5" y1="47.9375" y2="47.9375"/><ellipse cx="51.5" cy="58.9375" fill="#84BE84" rx="3" ry="3" style="stroke: #038048; stroke-width: 1.0;"/><text fill="#000000" font-family="sans-serif" font-size="11" font-style="italic" lengthAdjust="spacingAndGlyphs" textLength="228" x="60.5" y="62.1479">matches(MobilePhoneContract): boolean</text></a><!--MD5=[451b713c6882f24265d9aa38473f91fe]
reverse link MobilePlan.provided.Matcher to MobilePlan.util.MobilePhoneContractHomeAddressMatcher--><path codeLine="15" d="M174.5,89.53 C174.5,102.4 174.5,116.21 174.5,128.86 " fill="none" id="MobilePlan.provided.Matcher-backto-MobilePlan.util.MobilePhoneContractHomeAddressMatcher" style="stroke: #A80036; stroke-width: 1.0; stroke-dasharray: 7.0,7.0;"/><polygon fill="none" points="167.5,89.14,174.5,69.14,181.5,89.14,167.5,89.14" style="stroke: #A80036; stroke-width: 1.0;"/><text fill="#888888" font-family="sans-serif" font-size="10" lengthAdjust="spacingAndGlyphs" textLength="192" x="75.5" y="243.6338">UMLDoclet 2.0.12, PlantUML 1.2020.16</text><!--MD5=[2af634886dd263cc40ae1a9ba4b935a6]
@startuml
    set namespaceSeparator none
    hide empty fields
    hide empty methods

    class "<size:14>MobilePhoneContractHomeAddressMatcher\n<size:10>MobilePlan.util" as MobilePlan.util.MobilePhoneContractHomeAddressMatcher [[MobilePhoneContractHomeAddressMatcher.html]] {
        -pattern: String
        +MobilePhoneContractHomeAddressMatcher(String)
        +matches(MobilePhoneContract): boolean
    }

    interface "<size:14>Matcher\n<size:10>MobilePlan.provided" as MobilePlan.provided.Matcher<MobilePhoneContract> [[../provided/Matcher.html]] {
        {abstract} +matches(MobilePhoneContract): boolean
    }

    MobilePlan.provided.Matcher <|.. MobilePlan.util.MobilePhoneContractHomeAddressMatcher

    center footer UMLDoclet 2.0.12, PlantUML 1.2020.16
@enduml

PlantUML version 1.2020.16(Sun Aug 23 22:20:43 CEST 2020)
(APACHE source distribution)
Java Runtime: OpenJDK Runtime Environment
JVM: OpenJDK 64-Bit Server VM
Default Encoding: ANSI_X3.4-1968
Language: en
Country: US
--></g></svg>