<?xml version="1.0" encoding="UTF-8" standalone="no"?><svg xmlns="http://www.w3.org/2000/svg" xmlns:xlink="http://www.w3.org/1999/xlink" contentScriptType="application/ecmascript" contentStyleType="text/css" height="307px" preserveAspectRatio="none" style="width:382px;height:307px;" version="1.1" viewBox="0 0 382 307" width="382px" zoomAndPan="magnify"><defs><filter height="300%" id="foy4lgjrzpoj1" width="300%" x="-1" y="-1"><feGaussianBlur result="blurOut" stdDeviation="2.0"/><feColorMatrix in="blurOut" result="blurOut2" type="matrix" values="0 0 0 0 0 0 0 0 0 0 0 0 0 0 0 0 0 0 .4 0"/><feOffset dx="4.0" dy="4.0" in="blurOut2" result="blurOut3"/><feBlend in="SourceGraphic" in2="blurOut3" mode="normal"/></filter></defs><g><!--MD5=[cf08ede7bfa4b5c67bbadad71fb82315]
cluster MobilePlan.util--><polygon fill="#FFFFFF" filter="url(#foy4lgjrzpoj1)" points="16,142,135,142,142,164.2969,360,164.2969,360,279,16,279,16,142" style="stroke: #000000; stroke-width: 1.5;"/><line style="stroke: #000000; stroke-width: 1.5;" x1="16" x2="142" y1="164.2969" y2="164.2969"/><text fill="#000000" font-family="sans-serif" font-size="14" font-weight="bold" lengthAdjust="spacingAndGlyphs" textLength="113" x="20" y="156.9951">MobilePlan.util</text><!--MD5=[95a838d1e6e97ab38c15e6ac7d726e1a]
cluster MobilePlan.provided--><polygon fill="#FFFFFF" filter="url(#foy4lgjrzpoj1)" points="101,6,266,6,273,28.2969,276,28.2969,276,118,101,118,101,6" style="stroke: #000000; stroke-width: 1.5;"/><line style="stroke: #000000; stroke-width: 1.5;" x1="101" x2="273" y1="28.2969" y2="28.2969"/><text fill="#000000" font-family="sans-serif" font-size="14" font-weight="bold" lengthAdjust="spacingAndGlyphs" textLength="159" x="105" y="20.9951">MobilePlan.provided</text><!--MD5=[8e4cb301d1407ec6dc2a5453b1f4ea1e]
class MobilePlan.util.MobilePhoneContractHomeAddressMatcher--><a href="MobilePhoneContractHomeAddressMatcher.html" target="_top" title="MobilePhoneContractHomeAddressMatcher.html" xlink:actuate="onRequest" xlink:href="MobilePhoneContractHomeAddressMatcher.html" xlink:show="new" xlink:title="MobilePhoneContractHomeAddressMatcher.html" xlink:type="simple"><rect codeLine="3" fill="#FEFECE" filter="url(#foy4lgjrzpoj1)" height="86.4141" id="MobilePlan.util.MobilePhoneContractHomeAddressMatcher" style="stroke: #A80036; stroke-width: 1.5;" width="312" x="32" y="177"/><ellipse cx="50.6" cy="193" fill="#ADD1B2" rx="11" ry="11" style="stroke: #A80036; stroke-width: 1.0;"/><path d="M53.5688,198.6406 Q52.9906,198.9375 52.35,199.0781 Q51.7094,199.2344 51.0063,199.2344 Q48.5063,199.2344 47.1781,197.5938 Q45.8656,195.9375 45.8656,192.8125 Q45.8656,189.6875 47.1781,188.0313 Q48.5063,186.375 51.0063,186.375 Q51.7094,186.375 52.35,186.5313 Q53.0063,186.6875 53.5688,186.9844 L53.5688,189.7031 Q52.9438,189.125 52.35,188.8594 Q51.7563,188.5781 51.1313,188.5781 Q49.7875,188.5781 49.1,189.6563 Q48.4125,190.7188 48.4125,192.8125 Q48.4125,194.9063 49.1,195.9844 Q49.7875,197.0469 51.1313,197.0469 Q51.7563,197.0469 52.35,196.7813 Q52.9438,196.5 53.5688,195.9219 L53.5688,198.6406 Z "/><text fill="#000000" font-family="sans-serif" font-size="12" lengthAdjust="spacingAndGlyphs" textLength="272" x="65.4" y="197.1543">MobilePhoneContractHomeAddressMatcher</text><line style="stroke: #A80036; stroke-width: 1.5;" x1="33" x2="343" y1="209" y2="209"/><rect fill="none" height="6" style="stroke: #C82930; stroke-width: 1.0;" width="6" x="40" y="217"/><text fill="#000000" font-family="sans-serif" font-size="11" lengthAdjust="spacingAndGlyphs" textLength="83" x="52" y="223.2104">pattern: String</text><line style="stroke: #A80036; stroke-width: 1.5;" x1="33" x2="343" y1="229.8047" y2="229.8047"/><ellipse cx="43" cy="240.8047" fill="#84BE84" rx="3" ry="3" style="stroke: #038048; stroke-width: 1.0;"/><text fill="#000000" font-family="sans-serif" font-size="11" lengthAdjust="spacingAndGlyphs" textLength="286" x="52" y="244.0151">MobilePhoneContractHomeAddressMatcher(String)</text><ellipse cx="43" cy="253.6094" fill="#84BE84" rx="3" ry="3" style="stroke: #038048; stroke-width: 1.0;"/><text fill="#000000" font-family="sans-serif" font-size="11" lengthAdjust="spacingAndGlyphs" textLength="229" x="52" y="256.8198">matches(MobilePhoneContract): boolean</text></a><!--MD5=[944498ecafbea52f6158a9928cc1ec29]
class MobilePlan.provided.Matcher--><a href="../provided/Matcher.html" target="_top" title="../provided/Matcher.html" xlink:actuate="onRequest" xlink:href="../provided/Matcher.html" xlink:show="new" xlink:title="../provided/Matcher.html" xlink:type="simple"><rect codeLine="13" fill="#FEFECE" filter="url(#foy4lgjrzpoj1)" height="60.8047" id="MobilePlan.provided.Matcher" style="stroke: #A80036; stroke-width: 1.5;" width="142" x="117" y="41"/><ellipse cx="153.6" cy="57" fill="#B4A7E5" rx="11" ry="11" style="stroke: #A80036; stroke-width: 1.0;"/><path d="M149.5219,52.7656 L149.5219,50.6094 L156.9125,50.6094 L156.9125,52.7656 L154.4438,52.7656 L154.4438,60.8438 L156.9125,60.8438 L156.9125,63 L149.5219,63 L149.5219,60.8438 L151.9906,60.8438 L151.9906,52.7656 L149.5219,52.7656 Z "/><text fill="#000000" font-family="sans-serif" font-size="12" font-style="italic" lengthAdjust="spacingAndGlyphs" textLength="51" x="172.4" y="61.1543">Matcher</text><rect fill="#FFFFFF" height="15.9688" style="stroke: #000000; stroke-width: 1.0; stroke-dasharray: 2.0,2.0;" width="9" x="253" y="38"/><text fill="#000000" font-family="sans-serif" font-size="12" font-style="italic" lengthAdjust="spacingAndGlyphs" textLength="7" x="254" y="50.1387">T</text><line style="stroke: #A80036; stroke-width: 1.5;" x1="118" x2="258" y1="73" y2="73"/><line style="stroke: #A80036; stroke-width: 1.5;" x1="118" x2="258" y1="81" y2="81"/><ellipse cx="128" cy="92" fill="#84BE84" rx="3" ry="3" style="stroke: #038048; stroke-width: 1.0;"/><text fill="#000000" font-family="sans-serif" font-size="11" font-style="italic" lengthAdjust="spacingAndGlyphs" textLength="116" x="137" y="95.2104">matches(T): boolean</text></a><!--MD5=[451b713c6882f24265d9aa38473f91fe]
reverse link MobilePlan.provided.Matcher to MobilePlan.util.MobilePhoneContractHomeAddressMatcher--><path codeLine="9" d="M188,122.43 C188,140.15 188,159.9 188,176.91 " fill="none" id="MobilePlan.provided.Matcher-backto-MobilePlan.util.MobilePhoneContractHomeAddressMatcher" style="stroke: #A80036; stroke-width: 1.0; stroke-dasharray: 7.0,7.0;"/><polygon fill="none" points="181,122.15,188,102.15,195,122.15,181,122.15" style="stroke: #A80036; stroke-width: 1.0;"/><text fill="#888888" font-family="sans-serif" font-size="10" lengthAdjust="spacingAndGlyphs" textLength="192" x="86" y="294.2822">UMLDoclet 2.0.12, PlantUML 1.2020.16</text><!--MD5=[cb98b69544b68f683e6bd9c5065ddd73]
@startuml
    namespace MobilePlan.util {

        class MobilePhoneContractHomeAddressMatcher [[MobilePhoneContractHomeAddressMatcher.html]] {
            -pattern: String
            +MobilePhoneContractHomeAddressMatcher(String)
            +matches(MobilePhoneContract): boolean
        }

        MobilePlan.provided.Matcher <|.. MobilePhoneContractHomeAddressMatcher
    }

    namespace MobilePlan.provided {
        interface Matcher<T> [[../provided/Matcher.html]] {
            {abstract} +matches(T): boolean
        }
    }

    center footer UMLDoclet 2.0.12, PlantUML 1.2020.16
@enduml

PlantUML version 1.2020.16(Sun Aug 23 22:20:43 CEST 2020)
(APACHE source distribution)
Java Runtime: OpenJDK Runtime Environment
JVM: OpenJDK 64-Bit Server VM
Default Encoding: ANSI_X3.4-1968
Language: en
Country: US
--></g></svg>