<?xml version="1.0" encoding="UTF-8" standalone="no"?><svg xmlns="http://www.w3.org/2000/svg" xmlns:xlink="http://www.w3.org/1999/xlink" contentScriptType="application/ecmascript" contentStyleType="text/css" height="146px" preserveAspectRatio="none" style="width:317px;height:146px;" version="1.1" viewBox="0 0 317 146" width="317px" zoomAndPan="magnify"><defs><filter height="300%" id="f769hxhadzpo0" width="300%" x="-1" y="-1"><feGaussianBlur result="blurOut" stdDeviation="2.0"/><feColorMatrix in="blurOut" result="blurOut2" type="matrix" values="0 0 0 0 0 0 0 0 0 0 0 0 0 0 0 0 0 0 .4 0"/><feOffset dx="4.0" dy="4.0" in="blurOut2" result="blurOut3"/><feBlend in="SourceGraphic" in2="blurOut3" mode="normal"/></filter></defs><g><!--MD5=[59a68b5fde78795bfdfe1310b9936c0d]
class MobilePlan.app.Main--><a href="Main.html" target="_top" title="Main.html" xlink:actuate="onRequest" xlink:href="Main.html" xlink:show="new" xlink:title="Main.html" xlink:type="simple"><rect codeLine="5" fill="#FEFECE" filter="url(#f769hxhadzpo0)" height="109.9609" id="MobilePlan.app.Main" style="stroke: #A80036; stroke-width: 1.5;" width="291" x="7" y="7"/><ellipse cx="111.75" cy="25.9688" fill="#ADD1B2" rx="11" ry="11" style="stroke: #A80036; stroke-width: 1.0;"/><path d="M114.7188,31.6094 Q114.1406,31.9063 113.5,32.0469 Q112.8594,32.2031 112.1563,32.2031 Q109.6563,32.2031 108.3281,30.5625 Q107.0156,28.9063 107.0156,25.7813 Q107.0156,22.6563 108.3281,21 Q109.6563,19.3438 112.1563,19.3438 Q112.8594,19.3438 113.5,19.5 Q114.1563,19.6563 114.7188,19.9531 L114.7188,22.6719 Q114.0938,22.0938 113.5,21.8281 Q112.9063,21.5469 112.2813,21.5469 Q110.9375,21.5469 110.25,22.625 Q109.5625,23.6875 109.5625,25.7813 Q109.5625,27.875 110.25,28.9531 Q110.9375,30.0156 112.2813,30.0156 Q112.9063,30.0156 113.5,29.75 Q114.0938,29.4688 114.7188,28.8906 L114.7188,31.6094 Z "/><text fill="#000000" font-family="sans-serif" font-size="14" lengthAdjust="spacingAndGlyphs" textLength="32" x="152.75" y="24.9951">Main</text><text fill="#000000" font-family="sans-serif" font-size="10" lengthAdjust="spacingAndGlyphs" textLength="73" x="132.25" y="37.5791">MobilePlan.app</text><line style="stroke: #A80036; stroke-width: 1.5;" x1="8" x2="297" y1="44.9375" y2="44.9375"/><ellipse cx="18" cy="55.9375" fill="#84BE84" rx="3" ry="3" style="stroke: #038048; stroke-width: 1.0;"/><text fill="#000000" font-family="sans-serif" font-size="11" lengthAdjust="spacingAndGlyphs" text-decoration="underline" textLength="109" x="27" y="59.1479">main(String[]): void</text><ellipse cx="18" cy="68.7422" fill="#84BE84" rx="3" ry="3" style="stroke: #038048; stroke-width: 1.0;"/><text fill="#000000" font-family="sans-serif" font-size="11" lengthAdjust="spacingAndGlyphs" text-decoration="underline" textLength="265" x="27" y="71.9526">export(List&lt;MobilePhoneContract&gt;, String): int</text><ellipse cx="18" cy="81.5469" fill="#84BE84" rx="3" ry="3" style="stroke: #038048; stroke-width: 1.0;"/><text fill="#000000" font-family="sans-serif" font-size="11" lengthAdjust="spacingAndGlyphs" text-decoration="underline" textLength="257" x="27" y="84.7573">filter(List&lt;T&gt;, Matcher&lt;? super T&gt;): List&lt;T&gt;</text><ellipse cx="18" cy="94.3516" fill="#84BE84" rx="3" ry="3" style="stroke: #038048; stroke-width: 1.0;"/><text fill="#000000" font-family="sans-serif" font-size="11" lengthAdjust="spacingAndGlyphs" text-decoration="underline" textLength="222" x="27" y="97.562">print(List&lt;MobilePhoneContract&gt;): void</text><ellipse cx="18" cy="107.1563" fill="#84BE84" rx="3" ry="3" style="stroke: #038048; stroke-width: 1.0;"/><text fill="#000000" font-family="sans-serif" font-size="11" lengthAdjust="spacingAndGlyphs" text-decoration="underline" textLength="190" x="27" y="110.3667">init(): List&lt;MobilePhoneContract&gt;</text></a><text fill="#888888" font-family="sans-serif" font-size="10" lengthAdjust="spacingAndGlyphs" textLength="192" x="56.5" y="133.2432">UMLDoclet 2.0.12, PlantUML 1.2020.16</text><!--MD5=[31fafa7f7196abed9e61987f99f821f5]
@startuml
    set namespaceSeparator none
    hide empty fields
    hide empty methods

    class "<size:14>Main\n<size:10>MobilePlan.app" as MobilePlan.app.Main [[Main.html]] {
        {static} +main(String[]): void
        {static} +export(List<MobilePhoneContract>, String): int
        {static} +filter(List<T>, Matcher<? super T>): List<T>
        {static} +print(List<MobilePhoneContract>): void
        {static} +init(): List<MobilePhoneContract>
    }

    center footer UMLDoclet 2.0.12, PlantUML 1.2020.16
@enduml

PlantUML version 1.2020.16(Sun Aug 23 22:20:43 CEST 2020)
(APACHE source distribution)
Java Runtime: OpenJDK Runtime Environment
JVM: OpenJDK 64-Bit Server VM
Default Encoding: ANSI_X3.4-1968
Language: en
Country: US
--></g></svg>