<?xml version="1.0" encoding="UTF-8" standalone="no"?><svg xmlns="http://www.w3.org/2000/svg" xmlns:xlink="http://www.w3.org/1999/xlink" contentScriptType="application/ecmascript" contentStyleType="text/css" height="197px" preserveAspectRatio="none" style="width:360px;height:197px;" version="1.1" viewBox="0 0 360 197" width="360px" zoomAndPan="magnify"><defs><filter height="300%" id="f1oq9vqa6prpw9" width="300%" x="-1" y="-1"><feGaussianBlur result="blurOut" stdDeviation="2.0"/><feColorMatrix in="blurOut" result="blurOut2" type="matrix" values="0 0 0 0 0 0 0 0 0 0 0 0 0 0 0 0 0 0 .4 0"/><feOffset dx="4.0" dy="4.0" in="blurOut2" result="blurOut3"/><feBlend in="SourceGraphic" in2="blurOut3" mode="normal"/></filter></defs><g><!--MD5=[65b1ba2cacfdf13e1a8d545cbecd389b]
cluster MobilePlan.app--><polygon fill="#FFFFFF" filter="url(#f1oq9vqa6prpw9)" points="16,6,140,6,147,28.2969,338,28.2969,338,169,16,169,16,6" style="stroke: #000000; stroke-width: 1.5;"/><line style="stroke: #000000; stroke-width: 1.5;" x1="16" x2="147" y1="28.2969" y2="28.2969"/><text fill="#000000" font-family="sans-serif" font-size="14" font-weight="bold" lengthAdjust="spacingAndGlyphs" textLength="118" x="20" y="20.9951">MobilePlan.app</text><!--MD5=[59a68b5fde78795bfdfe1310b9936c0d]
class MobilePlan.app.Main--><a href="Main.html" target="_top" title="Main.html" xlink:actuate="onRequest" xlink:href="Main.html" xlink:show="new" xlink:title="Main.html" xlink:type="simple"><rect codeLine="3" fill="#FEFECE" filter="url(#f1oq9vqa6prpw9)" height="112.0234" id="MobilePlan.app.Main" style="stroke: #A80036; stroke-width: 1.5;" width="291" x="31.5" y="41"/><ellipse cx="158.25" cy="57" fill="#ADD1B2" rx="11" ry="11" style="stroke: #A80036; stroke-width: 1.0;"/><path d="M161.2188,62.6406 Q160.6406,62.9375 160,63.0781 Q159.3594,63.2344 158.6563,63.2344 Q156.1563,63.2344 154.8281,61.5938 Q153.5156,59.9375 153.5156,56.8125 Q153.5156,53.6875 154.8281,52.0313 Q156.1563,50.375 158.6563,50.375 Q159.3594,50.375 160,50.5313 Q160.6563,50.6875 161.2188,50.9844 L161.2188,53.7031 Q160.5938,53.125 160,52.8594 Q159.4063,52.5781 158.7813,52.5781 Q157.4375,52.5781 156.75,53.6563 Q156.0625,54.7188 156.0625,56.8125 Q156.0625,58.9063 156.75,59.9844 Q157.4375,61.0469 158.7813,61.0469 Q159.4063,61.0469 160,60.7813 Q160.5938,60.5 161.2188,59.9219 L161.2188,62.6406 Z "/><text fill="#000000" font-family="sans-serif" font-size="12" lengthAdjust="spacingAndGlyphs" textLength="29" x="178.75" y="61.1543">Main</text><line style="stroke: #A80036; stroke-width: 1.5;" x1="32.5" x2="321.5" y1="73" y2="73"/><line style="stroke: #A80036; stroke-width: 1.5;" x1="32.5" x2="321.5" y1="81" y2="81"/><ellipse cx="42.5" cy="92" fill="#84BE84" rx="3" ry="3" style="stroke: #038048; stroke-width: 1.0;"/><text fill="#000000" font-family="sans-serif" font-size="11" lengthAdjust="spacingAndGlyphs" text-decoration="underline" textLength="109" x="51.5" y="95.2104">main(String[]): void</text><ellipse cx="42.5" cy="104.8047" fill="#84BE84" rx="3" ry="3" style="stroke: #038048; stroke-width: 1.0;"/><text fill="#000000" font-family="sans-serif" font-size="11" lengthAdjust="spacingAndGlyphs" text-decoration="underline" textLength="265" x="51.5" y="108.0151">export(List&lt;MobilePhoneContract&gt;, String): int</text><ellipse cx="42.5" cy="117.6094" fill="#84BE84" rx="3" ry="3" style="stroke: #038048; stroke-width: 1.0;"/><text fill="#000000" font-family="sans-serif" font-size="11" lengthAdjust="spacingAndGlyphs" text-decoration="underline" textLength="257" x="51.5" y="120.8198">filter(List&lt;T&gt;, Matcher&lt;? super T&gt;): List&lt;T&gt;</text><ellipse cx="42.5" cy="130.4141" fill="#84BE84" rx="3" ry="3" style="stroke: #038048; stroke-width: 1.0;"/><text fill="#000000" font-family="sans-serif" font-size="11" lengthAdjust="spacingAndGlyphs" text-decoration="underline" textLength="222" x="51.5" y="133.6245">print(List&lt;MobilePhoneContract&gt;): void</text><ellipse cx="42.5" cy="143.2188" fill="#84BE84" rx="3" ry="3" style="stroke: #038048; stroke-width: 1.0;"/><text fill="#000000" font-family="sans-serif" font-size="11" lengthAdjust="spacingAndGlyphs" text-decoration="underline" textLength="190" x="51.5" y="146.4292">init(): List&lt;MobilePhoneContract&gt;</text></a><text fill="#888888" font-family="sans-serif" font-size="10" lengthAdjust="spacingAndGlyphs" textLength="192" x="75" y="184.2822">UMLDoclet 2.0.12, PlantUML 1.2020.16</text><!--MD5=[a6e1efc82186a447a937b94644ebbd57]
@startuml
    namespace MobilePlan.app {

        class Main [[Main.html]] {
            {static} +main(String[]): void
            {static} +export(List<MobilePhoneContract>, String): int
            {static} +filter(List<T>, Matcher<? super T>): List<T>
            {static} +print(List<MobilePhoneContract>): void
            {static} +init(): List<MobilePhoneContract>
        }

    }

    center footer UMLDoclet 2.0.12, PlantUML 1.2020.16
@enduml

PlantUML version 1.2020.16(Sun Aug 23 22:20:43 CEST 2020)
(APACHE source distribution)
Java Runtime: OpenJDK Runtime Environment
JVM: OpenJDK 64-Bit Server VM
Default Encoding: ANSI_X3.4-1968
Language: en
Country: US
--></g></svg>