<?xml version="1.0" encoding="UTF-8" standalone="no"?><svg xmlns="http://www.w3.org/2000/svg" xmlns:xlink="http://www.w3.org/1999/xlink" contentScriptType="application/ecmascript" contentStyleType="text/css" height="193px" preserveAspectRatio="none" style="width:551px;height:193px;" version="1.1" viewBox="0 0 551 193" width="551px" zoomAndPan="magnify"><defs><filter height="300%" id="f13xz0otqeqmem" width="300%" x="-1" y="-1"><feGaussianBlur result="blurOut" stdDeviation="2.0"/><feColorMatrix in="blurOut" result="blurOut2" type="matrix" values="0 0 0 0 0 0 0 0 0 0 0 0 0 0 0 0 0 0 .4 0"/><feOffset dx="4.0" dy="4.0" in="blurOut2" result="blurOut3"/><feBlend in="SourceGraphic" in2="blurOut3" mode="normal"/></filter></defs><g><!--MD5=[343a79ebb0da95abaa4184077aac5829]
class MobilePlan.entities.Connection--><a href="Connection.html" target="_top" title="Connection.html" xlink:actuate="onRequest" xlink:href="Connection.html" xlink:show="new" xlink:title="Connection.html" xlink:type="simple"><rect codeLine="5" fill="#FEFECE" filter="url(#f13xz0otqeqmem)" height="156.375" id="MobilePlan.entities.Connection" style="stroke: #A80036; stroke-width: 1.5;" width="525" x="7" y="7"/><ellipse cx="220.25" cy="25.9688" fill="#ADD1B2" rx="11" ry="11" style="stroke: #A80036; stroke-width: 1.0;"/><path d="M223.2188,31.6094 Q222.6406,31.9063 222,32.0469 Q221.3594,32.2031 220.6563,32.2031 Q218.1563,32.2031 216.8281,30.5625 Q215.5156,28.9063 215.5156,25.7813 Q215.5156,22.6563 216.8281,21 Q218.1563,19.3438 220.6563,19.3438 Q221.3594,19.3438 222,19.5 Q222.6563,19.6563 223.2188,19.9531 L223.2188,22.6719 Q222.5938,22.0938 222,21.8281 Q221.4063,21.5469 220.7813,21.5469 Q219.4375,21.5469 218.75,22.625 Q218.0625,23.6875 218.0625,25.7813 Q218.0625,27.875 218.75,28.9531 Q219.4375,30.0156 220.7813,30.0156 Q221.4063,30.0156 222,29.75 Q222.5938,29.4688 223.2188,28.8906 L223.2188,31.6094 Z "/><text fill="#000000" font-family="sans-serif" font-size="14" lengthAdjust="spacingAndGlyphs" textLength="80" x="245.75" y="24.9951">Connection</text><text fill="#000000" font-family="sans-serif" font-size="10" lengthAdjust="spacingAndGlyphs" textLength="90" x="240.75" y="37.5791">MobilePlan.entities</text><line style="stroke: #A80036; stroke-width: 1.5;" x1="8" x2="531" y1="44.9375" y2="44.9375"/><rect fill="none" height="6" style="stroke: #C82930; stroke-width: 1.0;" width="6" x="15" y="52.9375"/><text fill="#000000" font-family="sans-serif" font-size="11" lengthAdjust="spacingAndGlyphs" textLength="158" x="27" y="59.1479">caller: MobilePhoneContract</text><rect fill="none" height="6" style="stroke: #C82930; stroke-width: 1.0;" width="6" x="15" y="65.7422"/><text fill="#000000" font-family="sans-serif" font-size="11" lengthAdjust="spacingAndGlyphs" textLength="160" x="27" y="71.9526">callee: MobilePhoneContract</text><rect fill="none" height="6" style="stroke: #C82930; stroke-width: 1.0;" width="6" x="15" y="78.5469"/><text fill="#000000" font-family="sans-serif" font-size="11" lengthAdjust="spacingAndGlyphs" textLength="122" x="27" y="84.7573">type: ConnectionType</text><rect fill="none" height="6" style="stroke: #C82930; stroke-width: 1.0;" width="6" x="15" y="91.3516"/><text fill="#000000" font-family="sans-serif" font-size="11" lengthAdjust="spacingAndGlyphs" textLength="50" x="27" y="97.562">units: int</text><rect fill="none" height="6" style="stroke: #C82930; stroke-width: 1.0;" width="6" x="15" y="104.1563"/><text fill="#000000" font-family="sans-serif" font-size="11" lengthAdjust="spacingAndGlyphs" textLength="115" x="27" y="110.3667">dateTime: DateTime</text><line style="stroke: #A80036; stroke-width: 1.5;" x1="8" x2="531" y1="116.9609" y2="116.9609"/><ellipse cx="18" cy="127.9609" fill="#84BE84" rx="3" ry="3" style="stroke: #038048; stroke-width: 1.0;"/><text fill="#000000" font-family="sans-serif" font-size="11" lengthAdjust="spacingAndGlyphs" textLength="499" x="27" y="131.1714">Connection(MobilePhoneContract, MobilePhoneContract, ConnectionType, DateTime, int)</text><ellipse cx="18" cy="140.7656" fill="#84BE84" rx="3" ry="3" style="stroke: #038048; stroke-width: 1.0;"/><text fill="#000000" font-family="sans-serif" font-size="11" lengthAdjust="spacingAndGlyphs" textLength="77" x="27" y="143.9761">getUnits(): int</text><ellipse cx="18" cy="153.5703" fill="#84BE84" rx="3" ry="3" style="stroke: #038048; stroke-width: 1.0;"/><text fill="#000000" font-family="sans-serif" font-size="11" lengthAdjust="spacingAndGlyphs" textLength="186" x="27" y="156.7808">getCaller(): MobilePhoneContract</text></a><text fill="#888888" font-family="sans-serif" font-size="10" lengthAdjust="spacingAndGlyphs" textLength="192" x="173.5" y="179.6572">UMLDoclet 2.0.12, PlantUML 1.2020.16</text><!--MD5=[4a7d6b267e426b640113af350062de40]
@startuml
    set namespaceSeparator none
    hide empty fields
    hide empty methods

    class "<size:14>Connection\n<size:10>MobilePlan.entities" as MobilePlan.entities.Connection [[Connection.html]] {
        -caller: MobilePhoneContract
        -callee: MobilePhoneContract
        -type: ConnectionType
        -units: int
        -dateTime: DateTime
        +Connection(MobilePhoneContract, MobilePhoneContract, ConnectionType, DateTime, int)
        +getUnits(): int
        +getCaller(): MobilePhoneContract
    }

    center footer UMLDoclet 2.0.12, PlantUML 1.2020.16
@enduml

PlantUML version 1.2020.16(Sun Aug 23 22:20:43 CEST 2020)
(APACHE source distribution)
Java Runtime: OpenJDK Runtime Environment
JVM: OpenJDK 64-Bit Server VM
Default Encoding: ANSI_X3.4-1968
Language: en
Country: US
--></g></svg>