<?xml version="1.0" encoding="UTF-8" standalone="no"?><svg xmlns="http://www.w3.org/2000/svg" xmlns:xlink="http://www.w3.org/1999/xlink" contentScriptType="application/ecmascript" contentStyleType="text/css" height="292px" preserveAspectRatio="none" style="width:313px;height:292px;" version="1.1" viewBox="0 0 313 292" width="313px" zoomAndPan="magnify"><defs><filter height="300%" id="f1ozjriwvi2l6x" width="300%" x="-1" y="-1"><feGaussianBlur result="blurOut" stdDeviation="2.0"/><feColorMatrix in="blurOut" result="blurOut2" type="matrix" values="0 0 0 0 0 0 0 0 0 0 0 0 0 0 0 0 0 0 .4 0"/><feOffset dx="4.0" dy="4.0" in="blurOut2" result="blurOut3"/><feBlend in="SourceGraphic" in2="blurOut3" mode="normal"/></filter></defs><g><!--MD5=[b516070f0a79274ed0812046e0f2889c]
class MobilePlan.entities.MonthlyContract--><a href="MonthlyContract.html" target="_top" title="MonthlyContract.html" xlink:actuate="onRequest" xlink:href="MonthlyContract.html" xlink:show="new" xlink:title="MonthlyContract.html" xlink:type="simple"><rect codeLine="5" fill="#FEFECE" filter="url(#f1ozjriwvi2l6x)" height="117.9609" id="MobilePlan.entities.MonthlyContract" style="stroke: #A80036; stroke-width: 1.5;" width="287" x="7" y="139"/><ellipse cx="89.75" cy="157.9688" fill="#ADD1B2" rx="11" ry="11" style="stroke: #A80036; stroke-width: 1.0;"/><path d="M92.7188,163.6094 Q92.1406,163.9063 91.5,164.0469 Q90.8594,164.2031 90.1563,164.2031 Q87.6563,164.2031 86.3281,162.5625 Q85.0156,160.9063 85.0156,157.7813 Q85.0156,154.6563 86.3281,153 Q87.6563,151.3438 90.1563,151.3438 Q90.8594,151.3438 91.5,151.5 Q92.1563,151.6563 92.7188,151.9531 L92.7188,154.6719 Q92.0938,154.0938 91.5,153.8281 Q90.9063,153.5469 90.2813,153.5469 Q88.9375,153.5469 88.25,154.625 Q87.5625,155.6875 87.5625,157.7813 Q87.5625,159.875 88.25,160.9531 Q88.9375,162.0156 90.2813,162.0156 Q90.9063,162.0156 91.5,161.75 Q92.0938,161.4688 92.7188,160.8906 L92.7188,163.6094 Z "/><text fill="#000000" font-family="sans-serif" font-size="14" lengthAdjust="spacingAndGlyphs" textLength="113" x="110.25" y="156.9951">MonthlyContract</text><text fill="#000000" font-family="sans-serif" font-size="10" lengthAdjust="spacingAndGlyphs" textLength="90" x="121.75" y="169.5791">MobilePlan.entities</text><line style="stroke: #A80036; stroke-width: 1.5;" x1="8" x2="293" y1="176.9375" y2="176.9375"/><rect fill="none" height="6" style="stroke: #C82930; stroke-width: 1.0;" width="6" x="15" y="184.9375"/><text fill="#000000" font-family="sans-serif" font-size="11" lengthAdjust="spacingAndGlyphs" textLength="98" x="27" y="191.1479">includedUnits: int</text><line style="stroke: #A80036; stroke-width: 1.5;" x1="8" x2="293" y1="197.7422" y2="197.7422"/><ellipse cx="18" cy="208.7422" fill="#84BE84" rx="3" ry="3" style="stroke: #038048; stroke-width: 1.0;"/><text fill="#000000" font-family="sans-serif" font-size="11" lengthAdjust="spacingAndGlyphs" textLength="261" x="27" y="211.9526">MonthlyContract(Customer, String, String, int)</text><ellipse cx="18" cy="221.5469" fill="#84BE84" rx="3" ry="3" style="stroke: #038048; stroke-width: 1.0;"/><text fill="#000000" font-family="sans-serif" font-size="11" lengthAdjust="spacingAndGlyphs" textLength="147" x="27" y="224.7573">setIncludedUnits(int): void</text><ellipse cx="18" cy="234.3516" fill="#84BE84" rx="3" ry="3" style="stroke: #038048; stroke-width: 1.0;"/><text fill="#000000" font-family="sans-serif" font-size="11" lengthAdjust="spacingAndGlyphs" textLength="79" x="27" y="237.562">unitsLeft(): int</text><ellipse cx="18" cy="247.1563" fill="#84BE84" rx="3" ry="3" style="stroke: #038048; stroke-width: 1.0;"/><text fill="#000000" font-family="sans-serif" font-size="11" lengthAdjust="spacingAndGlyphs" textLength="116" x="27" y="250.3667">additionalFee(): float</text></a><!--MD5=[357440a0abd9960c1eabc68d64381392]
class MobilePlan.entities.MobilePhoneContract--><a href="MobilePhoneContract.html" target="_top" title="MobilePhoneContract.html" xlink:actuate="onRequest" xlink:href="MobilePhoneContract.html" xlink:show="new" xlink:title="MobilePhoneContract.html" xlink:type="simple"><rect codeLine="13" fill="#FEFECE" filter="url(#f1ozjriwvi2l6x)" height="71.5469" id="MobilePlan.entities.MobilePhoneContract" style="stroke: #A80036; stroke-width: 1.5;" width="180" x="60.5" y="7"/><ellipse cx="75.5" cy="25.9688" fill="#A9DCDF" rx="11" ry="11" style="stroke: #A80036; stroke-width: 1.0;"/><path d="M75.6094,21.3125 L74.4531,26.3906 L76.7813,26.3906 L75.6094,21.3125 Z M74.125,19.0781 L77.1094,19.0781 L80.4688,31.4688 L78.0156,31.4688 L77.25,28.4063 L73.9688,28.4063 L73.2188,31.4688 L70.7813,31.4688 L74.125,19.0781 Z "/><text fill="#000000" font-family="sans-serif" font-size="14" font-style="italic" lengthAdjust="spacingAndGlyphs" textLength="148" x="89.5" y="24.9951">MobilePhoneContract</text><text fill="#000000" font-family="sans-serif" font-size="10" font-style="italic" lengthAdjust="spacingAndGlyphs" textLength="93" x="117" y="37.5791">MobilePlan.entities</text><line style="stroke: #A80036; stroke-width: 1.5;" x1="61.5" x2="239.5" y1="44.9375" y2="44.9375"/><ellipse cx="71.5" cy="55.9375" fill="#84BE84" rx="3" ry="3" style="stroke: #038048; stroke-width: 1.0;"/><text fill="#000000" font-family="sans-serif" font-size="11" font-style="italic" lengthAdjust="spacingAndGlyphs" textLength="78" x="80.5" y="59.1479">unitsLeft(): int</text><ellipse cx="71.5" cy="68.7422" fill="#84BE84" rx="3" ry="3" style="stroke: #038048; stroke-width: 1.0;"/><text fill="#000000" font-family="sans-serif" font-size="11" font-style="italic" lengthAdjust="spacingAndGlyphs" textLength="116" x="80.5" y="71.9526">additionalFee(): float</text></a><!--MD5=[20af39026b2a34b03b3d786f927d9301]
reverse link MobilePlan.entities.MobilePhoneContract to MobilePlan.entities.MonthlyContract--><path codeLine="18" d="M150.5,99.12 C150.5,112.06 150.5,125.9 150.5,138.97 " fill="none" id="MobilePlan.entities.MobilePhoneContract-backto-MobilePlan.entities.MonthlyContract" style="stroke: #A80036; stroke-width: 1.0;"/><polygon fill="none" points="143.5,99.1,150.5,79.1,157.5,99.1,143.5,99.1" style="stroke: #A80036; stroke-width: 1.0;"/><text fill="#888888" font-family="sans-serif" font-size="10" lengthAdjust="spacingAndGlyphs" textLength="192" x="51.5" y="279.2432">UMLDoclet 2.0.12, PlantUML 1.2020.16</text><!--MD5=[1c0f32e921093790c9d5637a8115d5b2]
@startuml
    set namespaceSeparator none
    hide empty fields
    hide empty methods

    class "<size:14>MonthlyContract\n<size:10>MobilePlan.entities" as MobilePlan.entities.MonthlyContract [[MonthlyContract.html]] {
        -includedUnits: int
        +MonthlyContract(Customer, String, String, int)
        +setIncludedUnits(int): void
        +unitsLeft(): int
        +additionalFee(): float
    }

    abstract class "<size:14>MobilePhoneContract\n<size:10>MobilePlan.entities" as MobilePlan.entities.MobilePhoneContract [[MobilePhoneContract.html]] {
        {abstract} +unitsLeft(): int
        {abstract} +additionalFee(): float
    }

    MobilePlan.entities.MobilePhoneContract <|- - MobilePlan.entities.MonthlyContract

    center footer UMLDoclet 2.0.12, PlantUML 1.2020.16
@enduml

PlantUML version 1.2020.16(Sun Aug 23 22:20:43 CEST 2020)
(APACHE source distribution)
Java Runtime: OpenJDK Runtime Environment
JVM: OpenJDK 64-Bit Server VM
Default Encoding: ANSI_X3.4-1968
Language: en
Country: US
--></g></svg>