<?xml version="1.0" encoding="UTF-8" standalone="no"?><svg xmlns="http://www.w3.org/2000/svg" xmlns:xlink="http://www.w3.org/1999/xlink" contentScriptType="application/ecmascript" contentStyleType="text/css" height="674px" preserveAspectRatio="none" style="width:1230px;height:674px;" version="1.1" viewBox="0 0 1230 674" width="1230px" zoomAndPan="magnify"><defs><filter height="300%" id="f1xw1hptjoueu3" width="300%" x="-1" y="-1"><feGaussianBlur result="blurOut" stdDeviation="2.0"/><feColorMatrix in="blurOut" result="blurOut2" type="matrix" values="0 0 0 0 0 0 0 0 0 0 0 0 0 0 0 0 0 0 .4 0"/><feOffset dx="4.0" dy="4.0" in="blurOut2" result="blurOut3"/><feBlend in="SourceGraphic" in2="blurOut3" mode="normal"/></filter></defs><g><!--MD5=[dcbcabbe55835db152988dd398f1439a]
cluster MobilePlan.entities--><polygon fill="#FFFFFF" filter="url(#f1xw1hptjoueu3)" points="16,151,170,151,177,173.2969,1208,173.2969,1208,646,16,646,16,151" style="stroke: #000000; stroke-width: 1.5;"/><line style="stroke: #000000; stroke-width: 1.5;" x1="16" x2="177" y1="173.2969" y2="173.2969"/><text fill="#000000" font-family="sans-serif" font-size="14" font-weight="bold" lengthAdjust="spacingAndGlyphs" textLength="148" x="20" y="165.9951">MobilePlan.entities</text><!--MD5=[aa8f7b917213fcc1c2766e2d59b49067]
cluster java.lang--><polygon fill="#FFFFFF" filter="url(#f1xw1hptjoueu3)" points="526,6,601,6,608,28.2969,686,28.2969,686,118,526,118,526,6" style="stroke: #000000; stroke-width: 1.5;"/><line style="stroke: #000000; stroke-width: 1.5;" x1="526" x2="608" y1="28.2969" y2="28.2969"/><text fill="#000000" font-family="sans-serif" font-size="14" font-weight="bold" lengthAdjust="spacingAndGlyphs" textLength="69" x="530" y="20.9951">java.lang</text><!--MD5=[357440a0abd9960c1eabc68d64381392]
class MobilePlan.entities.MobilePhoneContract--><a href="MobilePhoneContract.html" target="_top" title="MobilePhoneContract.html" xlink:actuate="onRequest" xlink:href="MobilePhoneContract.html" xlink:show="new" xlink:title="MobilePhoneContract.html" xlink:type="simple"><rect codeLine="3" fill="#FEFECE" filter="url(#f1xw1hptjoueu3)" height="214.4609" id="MobilePlan.entities.MobilePhoneContract" style="stroke: #A80036; stroke-width: 1.5;" width="293" x="459.5" y="186"/><ellipse cx="535.25" cy="202" fill="#A9DCDF" rx="11" ry="11" style="stroke: #A80036; stroke-width: 1.0;"/><path d="M535.3594,197.3438 L534.2031,202.4219 L536.5313,202.4219 L535.3594,197.3438 Z M533.875,195.1094 L536.8594,195.1094 L540.2188,207.5 L537.7656,207.5 L537,204.4375 L533.7188,204.4375 L532.9688,207.5 L530.5313,207.5 L533.875,195.1094 Z "/><text fill="#000000" font-family="sans-serif" font-size="12" font-style="italic" lengthAdjust="spacingAndGlyphs" textLength="133" x="555.75" y="206.1543">MobilePhoneContract</text><line style="stroke: #A80036; stroke-width: 1.5;" x1="460.5" x2="751.5" y1="218" y2="218"/><rect fill="none" height="6" style="stroke: #C82930; stroke-width: 1.0;" width="6" x="467.5" y="226"/><text fill="#000000" font-family="sans-serif" font-size="11" lengthAdjust="spacingAndGlyphs" textLength="118" x="479.5" y="232.2104">customer: Customer</text><rect fill="none" height="6" style="stroke: #C82930; stroke-width: 1.0;" width="6" x="467.5" y="238.8047"/><text fill="#000000" font-family="sans-serif" font-size="11" lengthAdjust="spacingAndGlyphs" textLength="66" x="479.5" y="245.0151">imei: String</text><rect fill="none" height="6" style="stroke: #C82930; stroke-width: 1.0;" width="6" x="467.5" y="251.6094"/><text fill="#000000" font-family="sans-serif" font-size="11" lengthAdjust="spacingAndGlyphs" textLength="80" x="479.5" y="257.8198">carrier: String</text><line style="stroke: #A80036; stroke-width: 1.5;" x1="460.5" x2="751.5" y1="264.4141" y2="264.4141"/><ellipse cx="470.5" cy="275.4141" fill="#84BE84" rx="3" ry="3" style="stroke: #038048; stroke-width: 1.0;"/><text fill="#000000" font-family="sans-serif" font-size="11" lengthAdjust="spacingAndGlyphs" textLength="267" x="479.5" y="278.6245">MobilePhoneContract(Customer, String, String)</text><ellipse cx="470.5" cy="288.2188" fill="#84BE84" rx="3" ry="3" style="stroke: #038048; stroke-width: 1.0;"/><text fill="#000000" font-family="sans-serif" font-size="11" lengthAdjust="spacingAndGlyphs" textLength="236" x="479.5" y="291.4292">outgoingConnections(): List&lt;Connection&gt;</text><ellipse cx="470.5" cy="301.0234" fill="#84BE84" rx="3" ry="3" style="stroke: #038048; stroke-width: 1.0;"/><text fill="#000000" font-family="sans-serif" font-size="11" font-style="italic" lengthAdjust="spacingAndGlyphs" textLength="78" x="479.5" y="304.2339">unitsLeft(): int</text><ellipse cx="470.5" cy="313.8281" fill="#84BE84" rx="3" ry="3" style="stroke: #038048; stroke-width: 1.0;"/><text fill="#000000" font-family="sans-serif" font-size="11" font-style="italic" lengthAdjust="spacingAndGlyphs" textLength="116" x="479.5" y="317.0386">additionalFee(): float</text><ellipse cx="470.5" cy="326.6328" fill="#84BE84" rx="3" ry="3" style="stroke: #038048; stroke-width: 1.0;"/><text fill="#000000" font-family="sans-serif" font-size="11" lengthAdjust="spacingAndGlyphs" textLength="211" x="479.5" y="329.8433">setImei(String): MobilePhoneContract</text><ellipse cx="470.5" cy="339.4375" fill="#84BE84" rx="3" ry="3" style="stroke: #038048; stroke-width: 1.0;"/><text fill="#000000" font-family="sans-serif" font-size="11" lengthAdjust="spacingAndGlyphs" textLength="106" x="479.5" y="342.6479">getUsedUnits(): int</text><ellipse cx="470.5" cy="352.2422" fill="#84BE84" rx="3" ry="3" style="stroke: #038048; stroke-width: 1.0;"/><text fill="#000000" font-family="sans-serif" font-size="11" lengthAdjust="spacingAndGlyphs" textLength="213" x="479.5" y="355.4526">compareTo(MobilePhoneContract): int</text><ellipse cx="470.5" cy="365.0469" fill="#84BE84" rx="3" ry="3" style="stroke: #038048; stroke-width: 1.0;"/><text fill="#000000" font-family="sans-serif" font-size="11" lengthAdjust="spacingAndGlyphs" textLength="146" x="479.5" y="368.2573">getCustomer(): Customer</text><ellipse cx="470.5" cy="377.8516" fill="#84BE84" rx="3" ry="3" style="stroke: #038048; stroke-width: 1.0;"/><text fill="#000000" font-family="sans-serif" font-size="11" lengthAdjust="spacingAndGlyphs" textLength="92" x="479.5" y="381.062">getImei(): String</text><ellipse cx="470.5" cy="390.6563" fill="#84BE84" rx="3" ry="3" style="stroke: #038048; stroke-width: 1.0;"/><text fill="#000000" font-family="sans-serif" font-size="11" lengthAdjust="spacingAndGlyphs" textLength="208" x="479.5" y="393.8667">addConnection(Connection): boolean</text></a><!--MD5=[343a79ebb0da95abaa4184077aac5829]
class MobilePlan.entities.Connection--><a href="Connection.html" target="_top" title="Connection.html" xlink:actuate="onRequest" xlink:href="Connection.html" xlink:show="new" xlink:title="Connection.html" xlink:type="simple"><rect codeLine="19" fill="#FEFECE" filter="url(#f1xw1hptjoueu3)" height="112.0234" id="MobilePlan.entities.Connection" style="stroke: #A80036; stroke-width: 1.5;" width="525" x="344.5" y="505"/><ellipse cx="567.25" cy="521" fill="#ADD1B2" rx="11" ry="11" style="stroke: #A80036; stroke-width: 1.0;"/><path d="M570.2188,526.6406 Q569.6406,526.9375 569,527.0781 Q568.3594,527.2344 567.6563,527.2344 Q565.1563,527.2344 563.8281,525.5938 Q562.5156,523.9375 562.5156,520.8125 Q562.5156,517.6875 563.8281,516.0313 Q565.1563,514.375 567.6563,514.375 Q568.3594,514.375 569,514.5313 Q569.6563,514.6875 570.2188,514.9844 L570.2188,517.7031 Q569.5938,517.125 569,516.8594 Q568.4063,516.5781 567.7813,516.5781 Q566.4375,516.5781 565.75,517.6563 Q565.0625,518.7188 565.0625,520.8125 Q565.0625,522.9063 565.75,523.9844 Q566.4375,525.0469 567.7813,525.0469 Q568.4063,525.0469 569,524.7813 Q569.5938,524.5 570.2188,523.9219 L570.2188,526.6406 Z "/><text fill="#000000" font-family="sans-serif" font-size="12" lengthAdjust="spacingAndGlyphs" textLength="71" x="587.75" y="525.1543">Connection</text><line style="stroke: #A80036; stroke-width: 1.5;" x1="345.5" x2="868.5" y1="537" y2="537"/><rect fill="none" height="6" style="stroke: #C82930; stroke-width: 1.0;" width="6" x="352.5" y="545"/><text fill="#000000" font-family="sans-serif" font-size="11" lengthAdjust="spacingAndGlyphs" textLength="122" x="364.5" y="551.2104">type: ConnectionType</text><rect fill="none" height="6" style="stroke: #C82930; stroke-width: 1.0;" width="6" x="352.5" y="557.8047"/><text fill="#000000" font-family="sans-serif" font-size="11" lengthAdjust="spacingAndGlyphs" textLength="50" x="364.5" y="564.0151">units: int</text><rect fill="none" height="6" style="stroke: #C82930; stroke-width: 1.0;" width="6" x="352.5" y="570.6094"/><text fill="#000000" font-family="sans-serif" font-size="11" lengthAdjust="spacingAndGlyphs" textLength="115" x="364.5" y="576.8198">dateTime: DateTime</text><line style="stroke: #A80036; stroke-width: 1.5;" x1="345.5" x2="868.5" y1="583.4141" y2="583.4141"/><ellipse cx="355.5" cy="594.4141" fill="#84BE84" rx="3" ry="3" style="stroke: #038048; stroke-width: 1.0;"/><text fill="#000000" font-family="sans-serif" font-size="11" lengthAdjust="spacingAndGlyphs" textLength="499" x="364.5" y="597.6245">Connection(MobilePhoneContract, MobilePhoneContract, ConnectionType, DateTime, int)</text><ellipse cx="355.5" cy="607.2188" fill="#84BE84" rx="3" ry="3" style="stroke: #038048; stroke-width: 1.0;"/><text fill="#000000" font-family="sans-serif" font-size="11" lengthAdjust="spacingAndGlyphs" textLength="77" x="364.5" y="610.4292">getUnits(): int</text></a><!--MD5=[f5bd47d4c1205210a1a36eaba88b9021]
class MobilePlan.entities.PrePaidCard--><a href="PrePaidCard.html" target="_top" title="PrePaidCard.html" xlink:actuate="onRequest" xlink:href="PrePaidCard.html" xlink:show="new" xlink:title="PrePaidCard.html" xlink:type="simple"><rect codeLine="27" fill="#FEFECE" filter="url(#f1xw1hptjoueu3)" height="137.6328" id="MobilePlan.entities.PrePaidCard" style="stroke: #A80036; stroke-width: 1.5;" width="277" x="32.5" y="492"/><ellipse cx="128.25" cy="508" fill="#ADD1B2" rx="11" ry="11" style="stroke: #A80036; stroke-width: 1.0;"/><path d="M131.2188,513.6406 Q130.6406,513.9375 130,514.0781 Q129.3594,514.2344 128.6563,514.2344 Q126.1563,514.2344 124.8281,512.5938 Q123.5156,510.9375 123.5156,507.8125 Q123.5156,504.6875 124.8281,503.0313 Q126.1563,501.375 128.6563,501.375 Q129.3594,501.375 130,501.5313 Q130.6563,501.6875 131.2188,501.9844 L131.2188,504.7031 Q130.5938,504.125 130,503.8594 Q129.4063,503.5781 128.7813,503.5781 Q127.4375,503.5781 126.75,504.6563 Q126.0625,505.7188 126.0625,507.8125 Q126.0625,509.9063 126.75,510.9844 Q127.4375,512.0469 128.7813,512.0469 Q129.4063,512.0469 130,511.7813 Q130.5938,511.5 131.2188,510.9219 L131.2188,513.6406 Z "/><text fill="#000000" font-family="sans-serif" font-size="12" lengthAdjust="spacingAndGlyphs" textLength="77" x="148.75" y="512.1543">PrePaidCard</text><line style="stroke: #A80036; stroke-width: 1.5;" x1="33.5" x2="308.5" y1="524" y2="524"/><rect fill="none" height="6" style="stroke: #C82930; stroke-width: 1.0;" width="6" x="40.5" y="532"/><text fill="#000000" font-family="sans-serif" font-size="11" lengthAdjust="spacingAndGlyphs" textLength="133" x="52.5" y="538.2104">preloadedAmount: float</text><line style="stroke: #A80036; stroke-width: 1.5;" x1="33.5" x2="308.5" y1="544.8047" y2="544.8047"/><ellipse cx="43.5" cy="555.8047" fill="#84BE84" rx="3" ry="3" style="stroke: #038048; stroke-width: 1.0;"/><text fill="#000000" font-family="sans-serif" font-size="11" lengthAdjust="spacingAndGlyphs" textLength="251" x="52.5" y="559.0151">PrePaidCard(Customer, String, String, float)</text><ellipse cx="43.5" cy="568.6094" fill="#84BE84" rx="3" ry="3" style="stroke: #038048; stroke-width: 1.0;"/><text fill="#000000" font-family="sans-serif" font-size="11" lengthAdjust="spacingAndGlyphs" textLength="218" x="52.5" y="571.8198">PrePaidCard(Customer, String, String)</text><rect fill="#F24D5C" height="6" style="stroke: #C82930; stroke-width: 1.0;" width="6" x="40.5" y="578.4141"/><text fill="#000000" font-family="sans-serif" font-size="11" lengthAdjust="spacingAndGlyphs" textLength="182" x="52.5" y="584.6245">setPreloadedAmount(float): void</text><ellipse cx="43.5" cy="594.2188" fill="#84BE84" rx="3" ry="3" style="stroke: #038048; stroke-width: 1.0;"/><text fill="#000000" font-family="sans-serif" font-size="11" lengthAdjust="spacingAndGlyphs" textLength="79" x="52.5" y="597.4292">unitsLeft(): int</text><ellipse cx="43.5" cy="607.0234" fill="#84BE84" rx="3" ry="3" style="stroke: #038048; stroke-width: 1.0;"/><text fill="#000000" font-family="sans-serif" font-size="11" lengthAdjust="spacingAndGlyphs" textLength="116" x="52.5" y="610.2339">additionalFee(): float</text><ellipse cx="43.5" cy="619.8281" fill="#84BE84" rx="3" ry="3" style="stroke: #038048; stroke-width: 1.0;"/><text fill="#000000" font-family="sans-serif" font-size="11" lengthAdjust="spacingAndGlyphs" textLength="97" x="52.5" y="623.0386">topUp(float): void</text></a><!--MD5=[b516070f0a79274ed0812046e0f2889c]
class MobilePlan.entities.MonthlyContract--><a href="MonthlyContract.html" target="_top" title="MonthlyContract.html" xlink:actuate="onRequest" xlink:href="MonthlyContract.html" xlink:show="new" xlink:title="MonthlyContract.html" xlink:type="simple"><rect codeLine="37" fill="#FEFECE" filter="url(#f1xw1hptjoueu3)" height="112.0234" id="MobilePlan.entities.MonthlyContract" style="stroke: #A80036; stroke-width: 1.5;" width="287" x="904.5" y="505"/><ellipse cx="992.75" cy="521" fill="#ADD1B2" rx="11" ry="11" style="stroke: #A80036; stroke-width: 1.0;"/><path d="M995.7188,526.6406 Q995.1406,526.9375 994.5,527.0781 Q993.8594,527.2344 993.1563,527.2344 Q990.6563,527.2344 989.3281,525.5938 Q988.0156,523.9375 988.0156,520.8125 Q988.0156,517.6875 989.3281,516.0313 Q990.6563,514.375 993.1563,514.375 Q993.8594,514.375 994.5,514.5313 Q995.1563,514.6875 995.7188,514.9844 L995.7188,517.7031 Q995.0938,517.125 994.5,516.8594 Q993.9063,516.5781 993.2813,516.5781 Q991.9375,516.5781 991.25,517.6563 Q990.5625,518.7188 990.5625,520.8125 Q990.5625,522.9063 991.25,523.9844 Q991.9375,525.0469 993.2813,525.0469 Q993.9063,525.0469 994.5,524.7813 Q995.0938,524.5 995.7188,523.9219 L995.7188,526.6406 Z "/><text fill="#000000" font-family="sans-serif" font-size="12" lengthAdjust="spacingAndGlyphs" textLength="102" x="1013.25" y="525.1543">MonthlyContract</text><line style="stroke: #A80036; stroke-width: 1.5;" x1="905.5" x2="1190.5" y1="537" y2="537"/><rect fill="none" height="6" style="stroke: #C82930; stroke-width: 1.0;" width="6" x="912.5" y="545"/><text fill="#000000" font-family="sans-serif" font-size="11" lengthAdjust="spacingAndGlyphs" textLength="98" x="924.5" y="551.2104">includedUnits: int</text><line style="stroke: #A80036; stroke-width: 1.5;" x1="905.5" x2="1190.5" y1="557.8047" y2="557.8047"/><ellipse cx="915.5" cy="568.8047" fill="#84BE84" rx="3" ry="3" style="stroke: #038048; stroke-width: 1.0;"/><text fill="#000000" font-family="sans-serif" font-size="11" lengthAdjust="spacingAndGlyphs" textLength="261" x="924.5" y="572.0151">MonthlyContract(Customer, String, String, int)</text><ellipse cx="915.5" cy="581.6094" fill="#84BE84" rx="3" ry="3" style="stroke: #038048; stroke-width: 1.0;"/><text fill="#000000" font-family="sans-serif" font-size="11" lengthAdjust="spacingAndGlyphs" textLength="147" x="924.5" y="584.8198">setIncludedUnits(int): void</text><ellipse cx="915.5" cy="594.4141" fill="#84BE84" rx="3" ry="3" style="stroke: #038048; stroke-width: 1.0;"/><text fill="#000000" font-family="sans-serif" font-size="11" lengthAdjust="spacingAndGlyphs" textLength="79" x="924.5" y="597.6245">unitsLeft(): int</text><ellipse cx="915.5" cy="607.2188" fill="#84BE84" rx="3" ry="3" style="stroke: #038048; stroke-width: 1.0;"/><text fill="#000000" font-family="sans-serif" font-size="11" lengthAdjust="spacingAndGlyphs" textLength="116" x="924.5" y="610.4292">additionalFee(): float</text></a><!--MD5=[008d82c49f85b4d489e041917c99c847]
class java.lang.Comparable--><rect codeLine="53" fill="#FEFECE" filter="url(#f1xw1hptjoueu3)" height="60.8047" id="java.lang.Comparable" style="stroke: #A80036; stroke-width: 1.5;" width="127" x="542.5" y="41"/><ellipse cx="561.55" cy="57" fill="#B4A7E5" rx="11" ry="11" style="stroke: #A80036; stroke-width: 1.0;"/><path d="M557.4719,52.7656 L557.4719,50.6094 L564.8625,50.6094 L564.8625,52.7656 L562.3938,52.7656 L562.3938,60.8438 L564.8625,60.8438 L564.8625,63 L557.4719,63 L557.4719,60.8438 L559.9406,60.8438 L559.9406,52.7656 L557.4719,52.7656 Z "/><text fill="#000000" font-family="sans-serif" font-size="12" font-style="italic" lengthAdjust="spacingAndGlyphs" textLength="75" x="576.45" y="61.1543">Comparable</text><rect fill="#FFFFFF" height="15.9688" style="stroke: #000000; stroke-width: 1.0; stroke-dasharray: 2.0,2.0;" width="9" x="663.5" y="38"/><text fill="#000000" font-family="sans-serif" font-size="12" font-style="italic" lengthAdjust="spacingAndGlyphs" textLength="7" x="664.5" y="50.1387">T</text><line style="stroke: #A80036; stroke-width: 1.5;" x1="543.5" x2="668.5" y1="73" y2="73"/><line style="stroke: #A80036; stroke-width: 1.5;" x1="543.5" x2="668.5" y1="81" y2="81"/><ellipse cx="553.5" cy="92" fill="#84BE84" rx="3" ry="3" style="stroke: #038048; stroke-width: 1.0;"/><text fill="#000000" font-family="sans-serif" font-size="11" font-style="italic" lengthAdjust="spacingAndGlyphs" textLength="101" x="562.5" y="95.2104">compareTo(T): int</text><!--MD5=[a12b3a5d53596d4f4a413ccda7289739]
reverse link java.lang.Comparable to MobilePlan.entities.MobilePhoneContract--><path codeLine="45" d="M606,122.14 C606,141.04 606,163.39 606,185.55 " fill="none" id="java.lang.Comparable-backto-MobilePlan.entities.MobilePhoneContract" style="stroke: #A80036; stroke-width: 1.0; stroke-dasharray: 7.0,7.0;"/><polygon fill="none" points="599,122.1,606,102.1,613,122.1,599,122.1" style="stroke: #A80036; stroke-width: 1.0;"/><!--MD5=[135be86f00e878a38f64cff68a82ef26]
link MobilePlan.entities.MobilePhoneContract to MobilePlan.entities.Connection--><path codeLine="46" d="M545.04,400.37 C539.6,420.67 538.09,441.87 544,462 C547.88,475.22 554.16,488.35 561.29,500.49 " fill="none" id="MobilePlan.entities.MobilePhoneContract-to-MobilePlan.entities.Connection" style="stroke: #A80036; stroke-width: 1.0;"/><polygon fill="#A80036" points="563.95,504.92,562.7256,495.1475,561.367,500.6388,555.8757,499.2803,563.95,504.92" style="stroke: #A80036; stroke-width: 1.0;"/><text fill="#000000" font-family="sans-serif" font-size="13" lengthAdjust="spacingAndGlyphs" textLength="77" x="545" y="450.5669">connections</text><text fill="#000000" font-family="sans-serif" font-size="13" lengthAdjust="spacingAndGlyphs" textLength="7" x="550.9858" y="493.8477">*</text><!--MD5=[4db7c93b2c48ad0ebfee86ed27b9d577]
link MobilePlan.entities.Connection to MobilePlan.entities.MobilePhoneContract--><path codeLine="47" d="M620.28,504.84 C623.07,490.94 625.59,475.99 627,462 C628.85,443.69 628.54,424.28 627.01,405.42 " fill="none" id="MobilePlan.entities.Connection-to-MobilePlan.entities.MobilePhoneContract" style="stroke: #A80036; stroke-width: 1.0;"/><polygon fill="#A80036" points="626.55,400.11,623.362,409.4286,626.9924,405.0904,631.3306,408.7208,626.55,400.11" style="stroke: #A80036; stroke-width: 1.0;"/><text fill="#000000" font-family="sans-serif" font-size="13" lengthAdjust="spacingAndGlyphs" textLength="34" x="630.5" y="443.0669">caller</text><text fill="#000000" font-family="sans-serif" font-size="13" lengthAdjust="spacingAndGlyphs" textLength="37" x="629" y="458.1997">callee</text><!--MD5=[a9d9aad2ac29f8e04ab1dba0ba67a077]
reverse link MobilePlan.entities.MobilePhoneContract to MobilePlan.entities.PrePaidCard--><path codeLine="48" d="M442.19,394.17 C388.84,426.79 330.9,462.22 282.31,491.93 " fill="none" id="MobilePlan.entities.MobilePhoneContract-backto-MobilePlan.entities.PrePaidCard" style="stroke: #A80036; stroke-width: 1.0;"/><polygon fill="none" points="438.62,388.15,459.34,383.68,445.92,400.09,438.62,388.15" style="stroke: #A80036; stroke-width: 1.0;"/><!--MD5=[20af39026b2a34b03b3d786f927d9301]
reverse link MobilePlan.entities.MobilePhoneContract to MobilePlan.entities.MonthlyContract--><path codeLine="49" d="M769.74,392.54 C832.84,430.52 902.64,472.52 956.55,504.96 " fill="none" id="MobilePlan.entities.MobilePhoneContract-backto-MobilePlan.entities.MonthlyContract" style="stroke: #A80036; stroke-width: 1.0;"/><polygon fill="none" points="766.09,398.52,752.57,382.2,773.31,386.52,766.09,398.52" style="stroke: #A80036; stroke-width: 1.0;"/><text fill="#888888" font-family="sans-serif" font-size="10" lengthAdjust="spacingAndGlyphs" textLength="192" x="510" y="661.2822">UMLDoclet 2.0.12, PlantUML 1.2020.16</text><!--MD5=[7916cae4c510d4392f62d1163ee5b6d7]
@startuml
    namespace MobilePlan.entities {

        abstract class MobilePhoneContract [[MobilePhoneContract.html]] {
            -customer: Customer
            -imei: String
            -carrier: String
            +MobilePhoneContract(Customer, String, String)
            +outgoingConnections(): List<Connection>
            {abstract} +unitsLeft(): int
            {abstract} +additionalFee(): float
            +setImei(String): MobilePhoneContract
            +getUsedUnits(): int
            +compareTo(MobilePhoneContract): int
            +getCustomer(): Customer
            +getImei(): String
            +addConnection(Connection): boolean
        }

        class Connection [[Connection.html]] {
            -type: ConnectionType
            -units: int
            -dateTime: DateTime
            +Connection(MobilePhoneContract, MobilePhoneContract, ConnectionType, DateTime, int)
            +getUnits(): int
        }

        class PrePaidCard [[PrePaidCard.html]] {
            -preloadedAmount: float
            +PrePaidCard(Customer, String, String, float)
            +PrePaidCard(Customer, String, String)
            -setPreloadedAmount(float): void
            +unitsLeft(): int
            +additionalFee(): float
            +topUp(float): void
        }

        class MonthlyContract [[MonthlyContract.html]] {
            -includedUnits: int
            +MonthlyContract(Customer, String, String, int)
            +setIncludedUnits(int): void
            +unitsLeft(): int
            +additionalFee(): float
        }

        java.lang.Comparable <|.. MobilePhoneContract
        MobilePhoneContract - -> "*" Connection: connections
        Connection - -> MobilePhoneContract: caller\ncallee
        MobilePhoneContract <|- - PrePaidCard
        MobilePhoneContract <|- - MonthlyContract
    }

    namespace java.lang {
        interface Comparable<T> {
            {abstract} +compareTo(T): int
        }
    }

    center footer UMLDoclet 2.0.12, PlantUML 1.2020.16
@enduml

PlantUML version 1.2020.16(Sun Aug 23 22:20:43 CEST 2020)
(APACHE source distribution)
Java Runtime: OpenJDK Runtime Environment
JVM: OpenJDK 64-Bit Server VM
Default Encoding: ANSI_X3.4-1968
Language: en
Country: US
--></g></svg>