<?xml version="1.0" encoding="UTF-8" standalone="no"?><svg xmlns="http://www.w3.org/2000/svg" xmlns:xlink="http://www.w3.org/1999/xlink" contentScriptType="application/ecmascript" contentStyleType="text/css" height="318px" preserveAspectRatio="none" style="width:303px;height:318px;" version="1.1" viewBox="0 0 303 318" width="303px" zoomAndPan="magnify"><defs><filter height="300%" id="f12x32y3tqyvn7" width="300%" x="-1" y="-1"><feGaussianBlur result="blurOut" stdDeviation="2.0"/><feColorMatrix in="blurOut" result="blurOut2" type="matrix" values="0 0 0 0 0 0 0 0 0 0 0 0 0 0 0 0 0 0 .4 0"/><feOffset dx="4.0" dy="4.0" in="blurOut2" result="blurOut3"/><feBlend in="SourceGraphic" in2="blurOut3" mode="normal"/></filter></defs><g><!--MD5=[f5bd47d4c1205210a1a36eaba88b9021]
class MobilePlan.entities.PrePaidCard--><a href="PrePaidCard.html" target="_top" title="PrePaidCard.html" xlink:actuate="onRequest" xlink:href="PrePaidCard.html" xlink:show="new" xlink:title="PrePaidCard.html" xlink:type="simple"><rect codeLine="5" fill="#FEFECE" filter="url(#f12x32y3tqyvn7)" height="143.5703" id="MobilePlan.entities.PrePaidCard" style="stroke: #A80036; stroke-width: 1.5;" width="277" x="7" y="139"/><ellipse cx="96.25" cy="157.9688" fill="#ADD1B2" rx="11" ry="11" style="stroke: #A80036; stroke-width: 1.0;"/><path d="M99.2188,163.6094 Q98.6406,163.9063 98,164.0469 Q97.3594,164.2031 96.6563,164.2031 Q94.1563,164.2031 92.8281,162.5625 Q91.5156,160.9063 91.5156,157.7813 Q91.5156,154.6563 92.8281,153 Q94.1563,151.3438 96.6563,151.3438 Q97.3594,151.3438 98,151.5 Q98.6563,151.6563 99.2188,151.9531 L99.2188,154.6719 Q98.5938,154.0938 98,153.8281 Q97.4063,153.5469 96.7813,153.5469 Q95.4375,153.5469 94.75,154.625 Q94.0625,155.6875 94.0625,157.7813 Q94.0625,159.875 94.75,160.9531 Q95.4375,162.0156 96.7813,162.0156 Q97.4063,162.0156 98,161.75 Q98.5938,161.4688 99.2188,160.8906 L99.2188,163.6094 Z "/><text fill="#000000" font-family="sans-serif" font-size="14" lengthAdjust="spacingAndGlyphs" textLength="84" x="119.75" y="156.9951">PrePaidCard</text><text fill="#000000" font-family="sans-serif" font-size="10" lengthAdjust="spacingAndGlyphs" textLength="90" x="116.75" y="169.5791">MobilePlan.entities</text><line style="stroke: #A80036; stroke-width: 1.5;" x1="8" x2="283" y1="176.9375" y2="176.9375"/><rect fill="none" height="6" style="stroke: #C82930; stroke-width: 1.0;" width="6" x="15" y="184.9375"/><text fill="#000000" font-family="sans-serif" font-size="11" lengthAdjust="spacingAndGlyphs" textLength="133" x="27" y="191.1479">preloadedAmount: float</text><line style="stroke: #A80036; stroke-width: 1.5;" x1="8" x2="283" y1="197.7422" y2="197.7422"/><ellipse cx="18" cy="208.7422" fill="#84BE84" rx="3" ry="3" style="stroke: #038048; stroke-width: 1.0;"/><text fill="#000000" font-family="sans-serif" font-size="11" lengthAdjust="spacingAndGlyphs" textLength="251" x="27" y="211.9526">PrePaidCard(Customer, String, String, float)</text><ellipse cx="18" cy="221.5469" fill="#84BE84" rx="3" ry="3" style="stroke: #038048; stroke-width: 1.0;"/><text fill="#000000" font-family="sans-serif" font-size="11" lengthAdjust="spacingAndGlyphs" textLength="218" x="27" y="224.7573">PrePaidCard(Customer, String, String)</text><rect fill="#F24D5C" height="6" style="stroke: #C82930; stroke-width: 1.0;" width="6" x="15" y="231.3516"/><text fill="#000000" font-family="sans-serif" font-size="11" lengthAdjust="spacingAndGlyphs" textLength="182" x="27" y="237.562">setPreloadedAmount(float): void</text><ellipse cx="18" cy="247.1563" fill="#84BE84" rx="3" ry="3" style="stroke: #038048; stroke-width: 1.0;"/><text fill="#000000" font-family="sans-serif" font-size="11" lengthAdjust="spacingAndGlyphs" textLength="79" x="27" y="250.3667">unitsLeft(): int</text><ellipse cx="18" cy="259.9609" fill="#84BE84" rx="3" ry="3" style="stroke: #038048; stroke-width: 1.0;"/><text fill="#000000" font-family="sans-serif" font-size="11" lengthAdjust="spacingAndGlyphs" textLength="116" x="27" y="263.1714">additionalFee(): float</text><ellipse cx="18" cy="272.7656" fill="#84BE84" rx="3" ry="3" style="stroke: #038048; stroke-width: 1.0;"/><text fill="#000000" font-family="sans-serif" font-size="11" lengthAdjust="spacingAndGlyphs" textLength="97" x="27" y="275.9761">topUp(float): void</text></a><!--MD5=[357440a0abd9960c1eabc68d64381392]
class MobilePlan.entities.MobilePhoneContract--><a href="MobilePhoneContract.html" target="_top" title="MobilePhoneContract.html" xlink:actuate="onRequest" xlink:href="MobilePhoneContract.html" xlink:show="new" xlink:title="MobilePhoneContract.html" xlink:type="simple"><rect codeLine="15" fill="#FEFECE" filter="url(#f12x32y3tqyvn7)" height="71.5469" id="MobilePlan.entities.MobilePhoneContract" style="stroke: #A80036; stroke-width: 1.5;" width="180" x="55.5" y="7"/><ellipse cx="70.5" cy="25.9688" fill="#A9DCDF" rx="11" ry="11" style="stroke: #A80036; stroke-width: 1.0;"/><path d="M70.6094,21.3125 L69.4531,26.3906 L71.7813,26.3906 L70.6094,21.3125 Z M69.125,19.0781 L72.1094,19.0781 L75.4688,31.4688 L73.0156,31.4688 L72.25,28.4063 L68.9688,28.4063 L68.2188,31.4688 L65.7813,31.4688 L69.125,19.0781 Z "/><text fill="#000000" font-family="sans-serif" font-size="14" font-style="italic" lengthAdjust="spacingAndGlyphs" textLength="148" x="84.5" y="24.9951">MobilePhoneContract</text><text fill="#000000" font-family="sans-serif" font-size="10" font-style="italic" lengthAdjust="spacingAndGlyphs" textLength="93" x="112" y="37.5791">MobilePlan.entities</text><line style="stroke: #A80036; stroke-width: 1.5;" x1="56.5" x2="234.5" y1="44.9375" y2="44.9375"/><ellipse cx="66.5" cy="55.9375" fill="#84BE84" rx="3" ry="3" style="stroke: #038048; stroke-width: 1.0;"/><text fill="#000000" font-family="sans-serif" font-size="11" font-style="italic" lengthAdjust="spacingAndGlyphs" textLength="78" x="75.5" y="59.1479">unitsLeft(): int</text><ellipse cx="66.5" cy="68.7422" fill="#84BE84" rx="3" ry="3" style="stroke: #038048; stroke-width: 1.0;"/><text fill="#000000" font-family="sans-serif" font-size="11" font-style="italic" lengthAdjust="spacingAndGlyphs" textLength="116" x="75.5" y="71.9526">additionalFee(): float</text></a><!--MD5=[a9d9aad2ac29f8e04ab1dba0ba67a077]
reverse link MobilePlan.entities.MobilePhoneContract to MobilePlan.entities.PrePaidCard--><path codeLine="20" d="M145.5,99.39 C145.5,112.07 145.5,125.72 145.5,138.96 " fill="none" id="MobilePlan.entities.MobilePhoneContract-backto-MobilePlan.entities.PrePaidCard" style="stroke: #A80036; stroke-width: 1.0;"/><polygon fill="none" points="138.5,99.2,145.5,79.2,152.5,99.2,138.5,99.2" style="stroke: #A80036; stroke-width: 1.0;"/><text fill="#888888" font-family="sans-serif" font-size="10" lengthAdjust="spacingAndGlyphs" textLength="192" x="46.5" y="304.8525">UMLDoclet 2.0.12, PlantUML 1.2020.16</text><!--MD5=[5f146a6854b57af4577355a9b6a7aaa6]
@startuml
    set namespaceSeparator none
    hide empty fields
    hide empty methods

    class "<size:14>PrePaidCard\n<size:10>MobilePlan.entities" as MobilePlan.entities.PrePaidCard [[PrePaidCard.html]] {
        -preloadedAmount: float
        +PrePaidCard(Customer, String, String, float)
        +PrePaidCard(Customer, String, String)
        -setPreloadedAmount(float): void
        +unitsLeft(): int
        +additionalFee(): float
        +topUp(float): void
    }

    abstract class "<size:14>MobilePhoneContract\n<size:10>MobilePlan.entities" as MobilePlan.entities.MobilePhoneContract [[MobilePhoneContract.html]] {
        {abstract} +unitsLeft(): int
        {abstract} +additionalFee(): float
    }

    MobilePlan.entities.MobilePhoneContract <|- - MobilePlan.entities.PrePaidCard

    center footer UMLDoclet 2.0.12, PlantUML 1.2020.16
@enduml

PlantUML version 1.2020.16(Sun Aug 23 22:20:43 CEST 2020)
(APACHE source distribution)
Java Runtime: OpenJDK Runtime Environment
JVM: OpenJDK 64-Bit Server VM
Default Encoding: ANSI_X3.4-1968
Language: en
Country: US
--></g></svg>