<?xml version="1.0" encoding="UTF-8" standalone="no"?><svg xmlns="http://www.w3.org/2000/svg" xmlns:xlink="http://www.w3.org/1999/xlink" contentScriptType="application/ecmascript" contentStyleType="text/css" height="269px" preserveAspectRatio="none" style="width:247px;height:269px;" version="1.1" viewBox="0 0 247 269" width="247px" zoomAndPan="magnify"><defs><filter height="300%" id="fwu0gbevcc9ta" width="300%" x="-1" y="-1"><feGaussianBlur result="blurOut" stdDeviation="2.0"/><feColorMatrix in="blurOut" result="blurOut2" type="matrix" values="0 0 0 0 0 0 0 0 0 0 0 0 0 0 0 0 0 0 .4 0"/><feOffset dx="4.0" dy="4.0" in="blurOut2" result="blurOut3"/><feBlend in="SourceGraphic" in2="blurOut3" mode="normal"/></filter></defs><g><!--MD5=[087e19ba3baa3027f32c765f96528fcc]
class MobilePlan.provided.Address--><a href="Address.html" target="_top" title="Address.html" xlink:actuate="onRequest" xlink:href="Address.html" xlink:show="new" xlink:title="Address.html" xlink:type="simple"><rect codeLine="5" fill="#FEFECE" filter="url(#fwu0gbevcc9ta)" height="233.2031" id="MobilePlan.provided.Address" style="stroke: #A80036; stroke-width: 1.5;" width="221" x="7" y="7"/><ellipse cx="64.75" cy="25.9688" fill="#ADD1B2" rx="11" ry="11" style="stroke: #A80036; stroke-width: 1.0;"/><path d="M67.7188,31.6094 Q67.1406,31.9063 66.5,32.0469 Q65.8594,32.2031 65.1563,32.2031 Q62.6563,32.2031 61.3281,30.5625 Q60.0156,28.9063 60.0156,25.7813 Q60.0156,22.6563 61.3281,21 Q62.6563,19.3438 65.1563,19.3438 Q65.8594,19.3438 66.5,19.5 Q67.1563,19.6563 67.7188,19.9531 L67.7188,22.6719 Q67.0938,22.0938 66.5,21.8281 Q65.9063,21.5469 65.2813,21.5469 Q63.9375,21.5469 63.25,22.625 Q62.5625,23.6875 62.5625,25.7813 Q62.5625,27.875 63.25,28.9531 Q63.9375,30.0156 65.2813,30.0156 Q65.9063,30.0156 66.5,29.75 Q67.0938,29.4688 67.7188,28.8906 L67.7188,31.6094 Z "/><text fill="#000000" font-family="sans-serif" font-size="14" lengthAdjust="spacingAndGlyphs" textLength="57" x="105.25" y="24.9951">Address</text><text fill="#000000" font-family="sans-serif" font-size="10" lengthAdjust="spacingAndGlyphs" textLength="97" x="85.25" y="37.5791">MobilePlan.provided</text><line style="stroke: #A80036; stroke-width: 1.5;" x1="8" x2="227" y1="44.9375" y2="44.9375"/><rect fill="none" height="6" style="stroke: #C82930; stroke-width: 1.0;" width="6" x="15" y="52.9375"/><text fill="#000000" font-family="sans-serif" font-size="11" lengthAdjust="spacingAndGlyphs" textLength="75" x="27" y="59.1479">line_1: String</text><rect fill="none" height="6" style="stroke: #C82930; stroke-width: 1.0;" width="6" x="15" y="65.7422"/><text fill="#000000" font-family="sans-serif" font-size="11" lengthAdjust="spacingAndGlyphs" textLength="37" x="27" y="71.9526">zip: int</text><rect fill="none" height="6" style="stroke: #C82930; stroke-width: 1.0;" width="6" x="15" y="78.5469"/><text fill="#000000" font-family="sans-serif" font-size="11" lengthAdjust="spacingAndGlyphs" textLength="61" x="27" y="84.7573">city: String</text><rect fill="none" height="6" style="stroke: #C82930; stroke-width: 1.0;" width="6" x="15" y="91.3516"/><text fill="#000000" font-family="sans-serif" font-size="11" lengthAdjust="spacingAndGlyphs" textLength="71" x="27" y="97.562">state: String</text><line style="stroke: #A80036; stroke-width: 1.5;" x1="8" x2="227" y1="104.1563" y2="104.1563"/><ellipse cx="18" cy="115.1563" fill="#84BE84" rx="3" ry="3" style="stroke: #038048; stroke-width: 1.0;"/><text fill="#000000" font-family="sans-serif" font-size="11" lengthAdjust="spacingAndGlyphs" textLength="195" x="27" y="118.3667">Address(String, int, String, String)</text><ellipse cx="18" cy="127.9609" fill="#84BE84" rx="3" ry="3" style="stroke: #038048; stroke-width: 1.0;"/><text fill="#000000" font-family="sans-serif" font-size="11" lengthAdjust="spacingAndGlyphs" textLength="102" x="27" y="131.1714">Address(Address)</text><ellipse cx="18" cy="140.7656" fill="#84BE84" rx="3" ry="3" style="stroke: #038048; stroke-width: 1.0;"/><text fill="#000000" font-family="sans-serif" font-size="11" lengthAdjust="spacingAndGlyphs" textLength="104" x="27" y="143.9761">getLine_1(): String</text><ellipse cx="18" cy="153.5703" fill="#84BE84" rx="3" ry="3" style="stroke: #038048; stroke-width: 1.0;"/><text fill="#000000" font-family="sans-serif" font-size="11" lengthAdjust="spacingAndGlyphs" textLength="127" x="27" y="156.7808">setLine_1(String): void</text><ellipse cx="18" cy="166.375" fill="#84BE84" rx="3" ry="3" style="stroke: #038048; stroke-width: 1.0;"/><text fill="#000000" font-family="sans-serif" font-size="11" lengthAdjust="spacingAndGlyphs" textLength="67" x="27" y="169.5854">getZip(): int</text><ellipse cx="18" cy="179.1797" fill="#84BE84" rx="3" ry="3" style="stroke: #038048; stroke-width: 1.0;"/><text fill="#000000" font-family="sans-serif" font-size="11" lengthAdjust="spacingAndGlyphs" textLength="90" x="27" y="182.3901">setZip(int): void</text><ellipse cx="18" cy="191.9844" fill="#84BE84" rx="3" ry="3" style="stroke: #038048; stroke-width: 1.0;"/><text fill="#000000" font-family="sans-serif" font-size="11" lengthAdjust="spacingAndGlyphs" textLength="89" x="27" y="195.1948">getCity(): String</text><ellipse cx="18" cy="204.7891" fill="#84BE84" rx="3" ry="3" style="stroke: #038048; stroke-width: 1.0;"/><text fill="#000000" font-family="sans-serif" font-size="11" lengthAdjust="spacingAndGlyphs" textLength="112" x="27" y="207.9995">setCity(String): void</text><ellipse cx="18" cy="217.5938" fill="#84BE84" rx="3" ry="3" style="stroke: #038048; stroke-width: 1.0;"/><text fill="#000000" font-family="sans-serif" font-size="11" lengthAdjust="spacingAndGlyphs" textLength="98" x="27" y="220.8042">getState(): String</text><ellipse cx="18" cy="230.3984" fill="#84BE84" rx="3" ry="3" style="stroke: #038048; stroke-width: 1.0;"/><text fill="#000000" font-family="sans-serif" font-size="11" lengthAdjust="spacingAndGlyphs" textLength="121" x="27" y="233.6089">setState(String): void</text></a><text fill="#888888" font-family="sans-serif" font-size="10" lengthAdjust="spacingAndGlyphs" textLength="192" x="21.5" y="256.4854">UMLDoclet 2.0.12, PlantUML 1.2020.16</text><!--MD5=[80a47db5df24a9264d519ed68de549fe]
@startuml
    set namespaceSeparator none
    hide empty fields
    hide empty methods

    class "<size:14>Address\n<size:10>MobilePlan.provided" as MobilePlan.provided.Address [[Address.html]] {
        -line_1: String
        -zip: int
        -city: String
        -state: String
        +Address(String, int, String, String)
        +Address(Address)
        +getLine_1(): String
        +setLine_1(String): void
        +getZip(): int
        +setZip(int): void
        +getCity(): String
        +setCity(String): void
        +getState(): String
        +setState(String): void
    }

    center footer UMLDoclet 2.0.12, PlantUML 1.2020.16
@enduml

PlantUML version 1.2020.16(Sun Aug 23 22:20:43 CEST 2020)
(APACHE source distribution)
Java Runtime: OpenJDK Runtime Environment
JVM: OpenJDK 64-Bit Server VM
Default Encoding: ANSI_X3.4-1968
Language: en
Country: US
--></g></svg>