<?xml version="1.0" encoding="UTF-8" standalone="no"?><svg xmlns="http://www.w3.org/2000/svg" xmlns:xlink="http://www.w3.org/1999/xlink" contentScriptType="application/ecmascript" contentStyleType="text/css" height="231px" preserveAspectRatio="none" style="width:227px;height:231px;" version="1.1" viewBox="0 0 227 231" width="227px" zoomAndPan="magnify"><defs><filter height="300%" id="f151jp1a5n9x82" width="300%" x="-1" y="-1"><feGaussianBlur result="blurOut" stdDeviation="2.0"/><feColorMatrix in="blurOut" result="blurOut2" type="matrix" values="0 0 0 0 0 0 0 0 0 0 0 0 0 0 0 0 0 0 .4 0"/><feOffset dx="4.0" dy="4.0" in="blurOut2" result="blurOut3"/><feBlend in="SourceGraphic" in2="blurOut3" mode="normal"/></filter></defs><g><!--MD5=[089ffad6f115c7f6e70f69caf93f100a]
class MobilePlan.provided.Customer--><a href="Customer.html" target="_top" title="Customer.html" xlink:actuate="onRequest" xlink:href="Customer.html" xlink:show="new" xlink:title="Customer.html" xlink:type="simple"><rect codeLine="5" fill="#FEFECE" filter="url(#f151jp1a5n9x82)" height="194.7891" id="MobilePlan.provided.Customer" style="stroke: #A80036; stroke-width: 1.5;" width="201" x="7" y="7"/><ellipse cx="54.75" cy="25.9688" fill="#ADD1B2" rx="11" ry="11" style="stroke: #A80036; stroke-width: 1.0;"/><path d="M57.7188,31.6094 Q57.1406,31.9063 56.5,32.0469 Q55.8594,32.2031 55.1563,32.2031 Q52.6563,32.2031 51.3281,30.5625 Q50.0156,28.9063 50.0156,25.7813 Q50.0156,22.6563 51.3281,21 Q52.6563,19.3438 55.1563,19.3438 Q55.8594,19.3438 56.5,19.5 Q57.1563,19.6563 57.7188,19.9531 L57.7188,22.6719 Q57.0938,22.0938 56.5,21.8281 Q55.9063,21.5469 55.2813,21.5469 Q53.9375,21.5469 53.25,22.625 Q52.5625,23.6875 52.5625,25.7813 Q52.5625,27.875 53.25,28.9531 Q53.9375,30.0156 55.2813,30.0156 Q55.9063,30.0156 56.5,29.75 Q57.0938,29.4688 57.7188,28.8906 L57.7188,31.6094 Z "/><text fill="#000000" font-family="sans-serif" font-size="14" lengthAdjust="spacingAndGlyphs" textLength="68" x="89.75" y="24.9951">Customer</text><text fill="#000000" font-family="sans-serif" font-size="10" lengthAdjust="spacingAndGlyphs" textLength="97" x="75.25" y="37.5791">MobilePlan.provided</text><line style="stroke: #A80036; stroke-width: 1.5;" x1="8" x2="207" y1="44.9375" y2="44.9375"/><rect fill="none" height="6" style="stroke: #C82930; stroke-width: 1.0;" width="6" x="15" y="52.9375"/><text fill="#000000" font-family="sans-serif" font-size="11" lengthAdjust="spacingAndGlyphs" textLength="74" x="27" y="59.1479">name: String</text><rect fill="none" height="6" style="stroke: #C82930; stroke-width: 1.0;" width="6" x="15" y="65.7422"/><text fill="#000000" font-family="sans-serif" font-size="11" lengthAdjust="spacingAndGlyphs" textLength="43" x="27" y="71.9526">age: int</text><rect fill="none" height="6" style="stroke: #C82930; stroke-width: 1.0;" width="6" x="15" y="78.5469"/><text fill="#000000" font-family="sans-serif" font-size="11" lengthAdjust="spacingAndGlyphs" textLength="87" x="27" y="84.7573">home: Address</text><line style="stroke: #A80036; stroke-width: 1.5;" x1="8" x2="207" y1="91.3516" y2="91.3516"/><ellipse cx="18" cy="102.3516" fill="#84BE84" rx="3" ry="3" style="stroke: #038048; stroke-width: 1.0;"/><text fill="#000000" font-family="sans-serif" font-size="11" lengthAdjust="spacingAndGlyphs" textLength="175" x="27" y="105.562">Customer(String, int, Address)</text><ellipse cx="18" cy="115.1563" fill="#84BE84" rx="3" ry="3" style="stroke: #038048; stroke-width: 1.0;"/><text fill="#000000" font-family="sans-serif" font-size="11" lengthAdjust="spacingAndGlyphs" textLength="120" x="27" y="118.3667">Customer(Customer)</text><ellipse cx="18" cy="127.9609" fill="#84BE84" rx="3" ry="3" style="stroke: #038048; stroke-width: 1.0;"/><text fill="#000000" font-family="sans-serif" font-size="11" lengthAdjust="spacingAndGlyphs" textLength="101" x="27" y="131.1714">getName(): String</text><ellipse cx="18" cy="140.7656" fill="#84BE84" rx="3" ry="3" style="stroke: #038048; stroke-width: 1.0;"/><text fill="#000000" font-family="sans-serif" font-size="11" lengthAdjust="spacingAndGlyphs" textLength="124" x="27" y="143.9761">setName(String): void</text><ellipse cx="18" cy="153.5703" fill="#84BE84" rx="3" ry="3" style="stroke: #038048; stroke-width: 1.0;"/><text fill="#000000" font-family="sans-serif" font-size="11" lengthAdjust="spacingAndGlyphs" textLength="69" x="27" y="156.7808">getAge(): int</text><ellipse cx="18" cy="166.375" fill="#84BE84" rx="3" ry="3" style="stroke: #038048; stroke-width: 1.0;"/><text fill="#000000" font-family="sans-serif" font-size="11" lengthAdjust="spacingAndGlyphs" textLength="92" x="27" y="169.5854">setAge(int): void</text><ellipse cx="18" cy="179.1797" fill="#84BE84" rx="3" ry="3" style="stroke: #038048; stroke-width: 1.0;"/><text fill="#000000" font-family="sans-serif" font-size="11" lengthAdjust="spacingAndGlyphs" textLength="114" x="27" y="182.3901">getHome(): Address</text><ellipse cx="18" cy="191.9844" fill="#84BE84" rx="3" ry="3" style="stroke: #038048; stroke-width: 1.0;"/><text fill="#000000" font-family="sans-serif" font-size="11" lengthAdjust="spacingAndGlyphs" textLength="137" x="27" y="195.1948">setHome(Address): void</text></a><text fill="#888888" font-family="sans-serif" font-size="10" lengthAdjust="spacingAndGlyphs" textLength="192" x="11.5" y="218.0713">UMLDoclet 2.0.12, PlantUML 1.2020.16</text><!--MD5=[090f9b2b0421651f24f4bbc6bd9cf2ba]
@startuml
    set namespaceSeparator none
    hide empty fields
    hide empty methods

    class "<size:14>Customer\n<size:10>MobilePlan.provided" as MobilePlan.provided.Customer [[Customer.html]] {
        -name: String
        -age: int
        -home: Address
        +Customer(String, int, Address)
        +Customer(Customer)
        +getName(): String
        +setName(String): void
        +getAge(): int
        +setAge(int): void
        +getHome(): Address
        +setHome(Address): void
    }

    center footer UMLDoclet 2.0.12, PlantUML 1.2020.16
@enduml

PlantUML version 1.2020.16(Sun Aug 23 22:20:43 CEST 2020)
(APACHE source distribution)
Java Runtime: OpenJDK Runtime Environment
JVM: OpenJDK 64-Bit Server VM
Default Encoding: ANSI_X3.4-1968
Language: en
Country: US
--></g></svg>