<?xml version="1.0" encoding="UTF-8" standalone="no"?><svg xmlns="http://www.w3.org/2000/svg" xmlns:xlink="http://www.w3.org/1999/xlink" contentScriptType="application/ecmascript" contentStyleType="text/css" height="697px" preserveAspectRatio="none" style="width:841px;height:697px;" version="1.1" viewBox="0 0 841 697" width="841px" zoomAndPan="magnify"><defs><filter height="300%" id="fge9xx9pbe0bu" width="300%" x="-1" y="-1"><feGaussianBlur result="blurOut" stdDeviation="2.0"/><feColorMatrix in="blurOut" result="blurOut2" type="matrix" values="0 0 0 0 0 0 0 0 0 0 0 0 0 0 0 0 0 0 .4 0"/><feOffset dx="4.0" dy="4.0" in="blurOut2" result="blurOut3"/><feBlend in="SourceGraphic" in2="blurOut3" mode="normal"/></filter></defs><g><!--MD5=[95a838d1e6e97ab38c15e6ac7d726e1a]
cluster MobilePlan.provided--><polygon fill="#FFFFFF" filter="url(#fge9xx9pbe0bu)" points="16,151,181,151,188,173.2969,819,173.2969,819,669,16,669,16,151" style="stroke: #000000; stroke-width: 1.5;"/><line style="stroke: #000000; stroke-width: 1.5;" x1="16" x2="188" y1="173.2969" y2="173.2969"/><text fill="#000000" font-family="sans-serif" font-size="14" font-weight="bold" lengthAdjust="spacingAndGlyphs" textLength="159" x="20" y="165.9951">MobilePlan.provided</text><!--MD5=[aa8f7b917213fcc1c2766e2d59b49067]
cluster java.lang--><polygon fill="#FFFFFF" filter="url(#fge9xx9pbe0bu)" points="628,6,703,6,710,28.2969,788,28.2969,788,118,628,118,628,6" style="stroke: #000000; stroke-width: 1.5;"/><line style="stroke: #000000; stroke-width: 1.5;" x1="628" x2="710" y1="28.2969" y2="28.2969"/><text fill="#000000" font-family="sans-serif" font-size="14" font-weight="bold" lengthAdjust="spacingAndGlyphs" textLength="69" x="632" y="20.9951">java.lang</text><!--MD5=[087e19ba3baa3027f32c765f96528fcc]
class MobilePlan.provided.Address--><a href="Address.html" target="_top" title="Address.html" xlink:actuate="onRequest" xlink:href="Address.html" xlink:show="new" xlink:title="Address.html" xlink:type="simple"><rect codeLine="3" fill="#FEFECE" filter="url(#fge9xx9pbe0bu)" height="227.2656" id="MobilePlan.provided.Address" style="stroke: #A80036; stroke-width: 1.5;" width="221" x="366.5" y="426"/><ellipse cx="447.25" cy="442" fill="#ADD1B2" rx="11" ry="11" style="stroke: #A80036; stroke-width: 1.0;"/><path d="M450.2188,447.6406 Q449.6406,447.9375 449,448.0781 Q448.3594,448.2344 447.6563,448.2344 Q445.1563,448.2344 443.8281,446.5938 Q442.5156,444.9375 442.5156,441.8125 Q442.5156,438.6875 443.8281,437.0313 Q445.1563,435.375 447.6563,435.375 Q448.3594,435.375 449,435.5313 Q449.6563,435.6875 450.2188,435.9844 L450.2188,438.7031 Q449.5938,438.125 449,437.8594 Q448.4063,437.5781 447.7813,437.5781 Q446.4375,437.5781 445.75,438.6563 Q445.0625,439.7188 445.0625,441.8125 Q445.0625,443.9063 445.75,444.9844 Q446.4375,446.0469 447.7813,446.0469 Q448.4063,446.0469 449,445.7813 Q449.5938,445.5 450.2188,444.9219 L450.2188,447.6406 Z "/><text fill="#000000" font-family="sans-serif" font-size="12" lengthAdjust="spacingAndGlyphs" textLength="51" x="467.75" y="446.1543">Address</text><line style="stroke: #A80036; stroke-width: 1.5;" x1="367.5" x2="586.5" y1="458" y2="458"/><rect fill="none" height="6" style="stroke: #C82930; stroke-width: 1.0;" width="6" x="374.5" y="466"/><text fill="#000000" font-family="sans-serif" font-size="11" lengthAdjust="spacingAndGlyphs" textLength="75" x="386.5" y="472.2104">line_1: String</text><rect fill="none" height="6" style="stroke: #C82930; stroke-width: 1.0;" width="6" x="374.5" y="478.8047"/><text fill="#000000" font-family="sans-serif" font-size="11" lengthAdjust="spacingAndGlyphs" textLength="37" x="386.5" y="485.0151">zip: int</text><rect fill="none" height="6" style="stroke: #C82930; stroke-width: 1.0;" width="6" x="374.5" y="491.6094"/><text fill="#000000" font-family="sans-serif" font-size="11" lengthAdjust="spacingAndGlyphs" textLength="61" x="386.5" y="497.8198">city: String</text><rect fill="none" height="6" style="stroke: #C82930; stroke-width: 1.0;" width="6" x="374.5" y="504.4141"/><text fill="#000000" font-family="sans-serif" font-size="11" lengthAdjust="spacingAndGlyphs" textLength="71" x="386.5" y="510.6245">state: String</text><line style="stroke: #A80036; stroke-width: 1.5;" x1="367.5" x2="586.5" y1="517.2188" y2="517.2188"/><ellipse cx="377.5" cy="528.2188" fill="#84BE84" rx="3" ry="3" style="stroke: #038048; stroke-width: 1.0;"/><text fill="#000000" font-family="sans-serif" font-size="11" lengthAdjust="spacingAndGlyphs" textLength="195" x="386.5" y="531.4292">Address(String, int, String, String)</text><ellipse cx="377.5" cy="541.0234" fill="#84BE84" rx="3" ry="3" style="stroke: #038048; stroke-width: 1.0;"/><text fill="#000000" font-family="sans-serif" font-size="11" lengthAdjust="spacingAndGlyphs" textLength="102" x="386.5" y="544.2339">Address(Address)</text><ellipse cx="377.5" cy="553.8281" fill="#84BE84" rx="3" ry="3" style="stroke: #038048; stroke-width: 1.0;"/><text fill="#000000" font-family="sans-serif" font-size="11" lengthAdjust="spacingAndGlyphs" textLength="104" x="386.5" y="557.0386">getLine_1(): String</text><ellipse cx="377.5" cy="566.6328" fill="#84BE84" rx="3" ry="3" style="stroke: #038048; stroke-width: 1.0;"/><text fill="#000000" font-family="sans-serif" font-size="11" lengthAdjust="spacingAndGlyphs" textLength="127" x="386.5" y="569.8433">setLine_1(String): void</text><ellipse cx="377.5" cy="579.4375" fill="#84BE84" rx="3" ry="3" style="stroke: #038048; stroke-width: 1.0;"/><text fill="#000000" font-family="sans-serif" font-size="11" lengthAdjust="spacingAndGlyphs" textLength="67" x="386.5" y="582.6479">getZip(): int</text><ellipse cx="377.5" cy="592.2422" fill="#84BE84" rx="3" ry="3" style="stroke: #038048; stroke-width: 1.0;"/><text fill="#000000" font-family="sans-serif" font-size="11" lengthAdjust="spacingAndGlyphs" textLength="90" x="386.5" y="595.4526">setZip(int): void</text><ellipse cx="377.5" cy="605.0469" fill="#84BE84" rx="3" ry="3" style="stroke: #038048; stroke-width: 1.0;"/><text fill="#000000" font-family="sans-serif" font-size="11" lengthAdjust="spacingAndGlyphs" textLength="89" x="386.5" y="608.2573">getCity(): String</text><ellipse cx="377.5" cy="617.8516" fill="#84BE84" rx="3" ry="3" style="stroke: #038048; stroke-width: 1.0;"/><text fill="#000000" font-family="sans-serif" font-size="11" lengthAdjust="spacingAndGlyphs" textLength="112" x="386.5" y="621.062">setCity(String): void</text><ellipse cx="377.5" cy="630.6563" fill="#84BE84" rx="3" ry="3" style="stroke: #038048; stroke-width: 1.0;"/><text fill="#000000" font-family="sans-serif" font-size="11" lengthAdjust="spacingAndGlyphs" textLength="98" x="386.5" y="633.8667">getState(): String</text><ellipse cx="377.5" cy="643.4609" fill="#84BE84" rx="3" ry="3" style="stroke: #038048; stroke-width: 1.0;"/><text fill="#000000" font-family="sans-serif" font-size="11" lengthAdjust="spacingAndGlyphs" textLength="121" x="386.5" y="646.6714">setState(String): void</text></a><!--MD5=[05c647a6e456b5e2744d608dea793877]
class MobilePlan.provided.DateTime--><a href="DateTime.html" target="_top" title="DateTime.html" xlink:actuate="onRequest" xlink:href="DateTime.html" xlink:show="new" xlink:title="DateTime.html" xlink:type="simple"><rect codeLine="20" fill="#FEFECE" filter="url(#fge9xx9pbe0bu)" height="163.2422" id="MobilePlan.provided.DateTime" style="stroke: #A80036; stroke-width: 1.5;" width="190" x="613" y="186"/><ellipse cx="674.25" cy="202" fill="#ADD1B2" rx="11" ry="11" style="stroke: #A80036; stroke-width: 1.0;"/><path d="M677.2188,207.6406 Q676.6406,207.9375 676,208.0781 Q675.3594,208.2344 674.6563,208.2344 Q672.1563,208.2344 670.8281,206.5938 Q669.5156,204.9375 669.5156,201.8125 Q669.5156,198.6875 670.8281,197.0313 Q672.1563,195.375 674.6563,195.375 Q675.3594,195.375 676,195.5313 Q676.6563,195.6875 677.2188,195.9844 L677.2188,198.7031 Q676.5938,198.125 676,197.8594 Q675.4063,197.5781 674.7813,197.5781 Q673.4375,197.5781 672.75,198.6563 Q672.0625,199.7188 672.0625,201.8125 Q672.0625,203.9063 672.75,204.9844 Q673.4375,206.0469 674.7813,206.0469 Q675.4063,206.0469 676,205.7813 Q676.5938,205.5 677.2188,204.9219 L677.2188,207.6406 Z "/><text fill="#000000" font-family="sans-serif" font-size="12" lengthAdjust="spacingAndGlyphs" textLength="59" x="694.75" y="206.1543">DateTime</text><line style="stroke: #A80036; stroke-width: 1.5;" x1="614" x2="802" y1="218" y2="218"/><rect fill="none" height="6" style="stroke: #C82930; stroke-width: 1.0;" width="6" x="621" y="226"/><text fill="#000000" font-family="sans-serif" font-size="11" lengthAdjust="spacingAndGlyphs" textLength="47" x="633" y="232.2104">year: int</text><rect fill="none" height="6" style="stroke: #C82930; stroke-width: 1.0;" width="6" x="621" y="238.8047"/><text fill="#000000" font-family="sans-serif" font-size="11" lengthAdjust="spacingAndGlyphs" textLength="58" x="633" y="245.0151">month: int</text><rect fill="none" height="6" style="stroke: #C82930; stroke-width: 1.0;" width="6" x="621" y="251.6094"/><text fill="#000000" font-family="sans-serif" font-size="11" lengthAdjust="spacingAndGlyphs" textLength="42" x="633" y="257.8198">day: int</text><rect fill="none" height="6" style="stroke: #C82930; stroke-width: 1.0;" width="6" x="621" y="264.4141"/><text fill="#000000" font-family="sans-serif" font-size="11" lengthAdjust="spacingAndGlyphs" textLength="48" x="633" y="270.6245">hour: int</text><rect fill="none" height="6" style="stroke: #C82930; stroke-width: 1.0;" width="6" x="621" y="277.2188"/><text fill="#000000" font-family="sans-serif" font-size="11" lengthAdjust="spacingAndGlyphs" textLength="43" x="633" y="283.4292">min: int</text><line style="stroke: #A80036; stroke-width: 1.5;" x1="614" x2="802" y1="290.0234" y2="290.0234"/><ellipse cx="624" cy="301.0234" fill="#84BE84" rx="3" ry="3" style="stroke: #038048; stroke-width: 1.0;"/><text fill="#000000" font-family="sans-serif" font-size="11" lengthAdjust="spacingAndGlyphs" textLength="116" x="633" y="304.2339">DateTime(DateTime)</text><ellipse cx="624" cy="313.8281" fill="#84BE84" rx="3" ry="3" style="stroke: #038048; stroke-width: 1.0;"/><text fill="#000000" font-family="sans-serif" font-size="11" lengthAdjust="spacingAndGlyphs" textLength="164" x="633" y="317.0386">DateTime(int, int, int, int, int)</text><ellipse cx="624" cy="326.6328" fill="#84BE84" rx="3" ry="3" style="stroke: #038048; stroke-width: 1.0;"/><text fill="#000000" font-family="sans-serif" font-size="11" lengthAdjust="spacingAndGlyphs" textLength="148" x="633" y="329.8433">compareTo(DateTime): int</text><ellipse cx="624" cy="339.4375" fill="#84BE84" rx="3" ry="3" style="stroke: #038048; stroke-width: 1.0;"/><text fill="#000000" font-family="sans-serif" font-size="11" lengthAdjust="spacingAndGlyphs" textLength="101" x="633" y="342.6479">timestamp(): long</text></a><!--MD5=[089ffad6f115c7f6e70f69caf93f100a]
class MobilePlan.provided.Customer--><a href="Customer.html" target="_top" title="Customer.html" xlink:actuate="onRequest" xlink:href="Customer.html" xlink:show="new" xlink:title="Customer.html" xlink:type="simple"><rect codeLine="32" fill="#FEFECE" filter="url(#fge9xx9pbe0bu)" height="150.4375" id="MobilePlan.provided.Customer" style="stroke: #A80036; stroke-width: 1.5;" width="201" x="376.5" y="192.5"/><ellipse cx="442.75" cy="208.5" fill="#ADD1B2" rx="11" ry="11" style="stroke: #A80036; stroke-width: 1.0;"/><path d="M445.7188,214.1406 Q445.1406,214.4375 444.5,214.5781 Q443.8594,214.7344 443.1563,214.7344 Q440.6563,214.7344 439.3281,213.0938 Q438.0156,211.4375 438.0156,208.3125 Q438.0156,205.1875 439.3281,203.5313 Q440.6563,201.875 443.1563,201.875 Q443.8594,201.875 444.5,202.0313 Q445.1563,202.1875 445.7188,202.4844 L445.7188,205.2031 Q445.0938,204.625 444.5,204.3594 Q443.9063,204.0781 443.2813,204.0781 Q441.9375,204.0781 441.25,205.1563 Q440.5625,206.2188 440.5625,208.3125 Q440.5625,210.4063 441.25,211.4844 Q441.9375,212.5469 443.2813,212.5469 Q443.9063,212.5469 444.5,212.2813 Q445.0938,212 445.7188,211.4219 L445.7188,214.1406 Z "/><text fill="#000000" font-family="sans-serif" font-size="12" lengthAdjust="spacingAndGlyphs" textLength="60" x="463.25" y="212.6543">Customer</text><line style="stroke: #A80036; stroke-width: 1.5;" x1="377.5" x2="576.5" y1="224.5" y2="224.5"/><rect fill="none" height="6" style="stroke: #C82930; stroke-width: 1.0;" width="6" x="384.5" y="232.5"/><text fill="#000000" font-family="sans-serif" font-size="11" lengthAdjust="spacingAndGlyphs" textLength="74" x="396.5" y="238.7104">name: String</text><rect fill="none" height="6" style="stroke: #C82930; stroke-width: 1.0;" width="6" x="384.5" y="245.3047"/><text fill="#000000" font-family="sans-serif" font-size="11" lengthAdjust="spacingAndGlyphs" textLength="43" x="396.5" y="251.5151">age: int</text><line style="stroke: #A80036; stroke-width: 1.5;" x1="377.5" x2="576.5" y1="258.1094" y2="258.1094"/><ellipse cx="387.5" cy="269.1094" fill="#84BE84" rx="3" ry="3" style="stroke: #038048; stroke-width: 1.0;"/><text fill="#000000" font-family="sans-serif" font-size="11" lengthAdjust="spacingAndGlyphs" textLength="175" x="396.5" y="272.3198">Customer(String, int, Address)</text><ellipse cx="387.5" cy="281.9141" fill="#84BE84" rx="3" ry="3" style="stroke: #038048; stroke-width: 1.0;"/><text fill="#000000" font-family="sans-serif" font-size="11" lengthAdjust="spacingAndGlyphs" textLength="120" x="396.5" y="285.1245">Customer(Customer)</text><ellipse cx="387.5" cy="294.7188" fill="#84BE84" rx="3" ry="3" style="stroke: #038048; stroke-width: 1.0;"/><text fill="#000000" font-family="sans-serif" font-size="11" lengthAdjust="spacingAndGlyphs" textLength="101" x="396.5" y="297.9292">getName(): String</text><ellipse cx="387.5" cy="307.5234" fill="#84BE84" rx="3" ry="3" style="stroke: #038048; stroke-width: 1.0;"/><text fill="#000000" font-family="sans-serif" font-size="11" lengthAdjust="spacingAndGlyphs" textLength="124" x="396.5" y="310.7339">setName(String): void</text><ellipse cx="387.5" cy="320.3281" fill="#84BE84" rx="3" ry="3" style="stroke: #038048; stroke-width: 1.0;"/><text fill="#000000" font-family="sans-serif" font-size="11" lengthAdjust="spacingAndGlyphs" textLength="69" x="396.5" y="323.5386">getAge(): int</text><ellipse cx="387.5" cy="333.1328" fill="#84BE84" rx="3" ry="3" style="stroke: #038048; stroke-width: 1.0;"/><text fill="#000000" font-family="sans-serif" font-size="11" lengthAdjust="spacingAndGlyphs" textLength="92" x="396.5" y="336.3433">setAge(int): void</text></a><!--MD5=[a731012deb2adf6bd5da17572f95e40c]
class MobilePlan.provided.ConnectionType--><a href="ConnectionType.html" target="_top" title="ConnectionType.html" xlink:actuate="onRequest" xlink:href="ConnectionType.html" xlink:show="new" xlink:title="ConnectionType.html" xlink:type="simple"><rect codeLine="43" fill="#FEFECE" filter="url(#fge9xx9pbe0bu)" height="86.4141" id="MobilePlan.provided.ConnectionType" style="stroke: #A80036; stroke-width: 1.5;" width="132" x="209" y="224.5"/><ellipse cx="224" cy="240.5" fill="#EB937F" rx="11" ry="11" style="stroke: #A80036; stroke-width: 1.0;"/><path d="M228.1094,246.5 L220.3906,246.5 L220.3906,234.1094 L228.1094,234.1094 L228.1094,236.2656 L222.8438,236.2656 L222.8438,238.9375 L227.6094,238.9375 L227.6094,241.0938 L222.8438,241.0938 L222.8438,244.3438 L228.1094,244.3438 L228.1094,246.5 Z "/><text fill="#000000" font-family="sans-serif" font-size="12" lengthAdjust="spacingAndGlyphs" textLength="100" x="238" y="244.6543">ConnectionType</text><line style="stroke: #A80036; stroke-width: 1.5;" x1="210" x2="340" y1="256.5" y2="256.5"/><ellipse cx="220" cy="267.5" fill="none" rx="3" ry="3" style="stroke: #038048; stroke-width: 1.0;"/><text fill="#000000" font-family="sans-serif" font-size="11" lengthAdjust="spacingAndGlyphs" text-decoration="underline" textLength="60" x="229" y="270.7104">STANDARD</text><ellipse cx="220" cy="280.3047" fill="none" rx="3" ry="3" style="stroke: #038048; stroke-width: 1.0;"/><text fill="#000000" font-family="sans-serif" font-size="11" lengthAdjust="spacingAndGlyphs" text-decoration="underline" textLength="50" x="229" y="283.5151">PREMIUM</text><ellipse cx="220" cy="293.1094" fill="none" rx="3" ry="3" style="stroke: #038048; stroke-width: 1.0;"/><text fill="#000000" font-family="sans-serif" font-size="11" lengthAdjust="spacingAndGlyphs" text-decoration="underline" textLength="28" x="229" y="296.3198">TEXT</text><line style="stroke: #A80036; stroke-width: 1.5;" x1="210" x2="340" y1="302.9141" y2="302.9141"/></a><!--MD5=[944498ecafbea52f6158a9928cc1ec29]
class MobilePlan.provided.Matcher--><a href="Matcher.html" target="_top" title="Matcher.html" xlink:actuate="onRequest" xlink:href="Matcher.html" xlink:show="new" xlink:title="Matcher.html" xlink:type="simple"><rect codeLine="49" fill="#FEFECE" filter="url(#fge9xx9pbe0bu)" height="60.8047" id="MobilePlan.provided.Matcher" style="stroke: #A80036; stroke-width: 1.5;" width="142" x="32" y="237"/><ellipse cx="68.6" cy="253" fill="#B4A7E5" rx="11" ry="11" style="stroke: #A80036; stroke-width: 1.0;"/><path d="M64.5219,248.7656 L64.5219,246.6094 L71.9125,246.6094 L71.9125,248.7656 L69.4438,248.7656 L69.4438,256.8438 L71.9125,256.8438 L71.9125,259 L64.5219,259 L64.5219,256.8438 L66.9906,256.8438 L66.9906,248.7656 L64.5219,248.7656 Z "/><text fill="#000000" font-family="sans-serif" font-size="12" font-style="italic" lengthAdjust="spacingAndGlyphs" textLength="51" x="87.4" y="257.1543">Matcher</text><rect fill="#FFFFFF" height="15.9688" style="stroke: #000000; stroke-width: 1.0; stroke-dasharray: 2.0,2.0;" width="9" x="168" y="234"/><text fill="#000000" font-family="sans-serif" font-size="12" font-style="italic" lengthAdjust="spacingAndGlyphs" textLength="7" x="169" y="246.1387">T</text><line style="stroke: #A80036; stroke-width: 1.5;" x1="33" x2="173" y1="269" y2="269"/><line style="stroke: #A80036; stroke-width: 1.5;" x1="33" x2="173" y1="277" y2="277"/><ellipse cx="43" cy="288" fill="#84BE84" rx="3" ry="3" style="stroke: #038048; stroke-width: 1.0;"/><text fill="#000000" font-family="sans-serif" font-size="11" font-style="italic" lengthAdjust="spacingAndGlyphs" textLength="116" x="52" y="291.2104">matches(T): boolean</text></a><!--MD5=[008d82c49f85b4d489e041917c99c847]
class java.lang.Comparable--><rect codeLine="58" fill="#FEFECE" filter="url(#fge9xx9pbe0bu)" height="60.8047" id="java.lang.Comparable" style="stroke: #A80036; stroke-width: 1.5;" width="127" x="644.5" y="41"/><ellipse cx="663.55" cy="57" fill="#B4A7E5" rx="11" ry="11" style="stroke: #A80036; stroke-width: 1.0;"/><path d="M659.4719,52.7656 L659.4719,50.6094 L666.8625,50.6094 L666.8625,52.7656 L664.3938,52.7656 L664.3938,60.8438 L666.8625,60.8438 L666.8625,63 L659.4719,63 L659.4719,60.8438 L661.9406,60.8438 L661.9406,52.7656 L659.4719,52.7656 Z "/><text fill="#000000" font-family="sans-serif" font-size="12" font-style="italic" lengthAdjust="spacingAndGlyphs" textLength="75" x="678.45" y="61.1543">Comparable</text><rect fill="#FFFFFF" height="15.9688" style="stroke: #000000; stroke-width: 1.0; stroke-dasharray: 2.0,2.0;" width="9" x="765.5" y="38"/><text fill="#000000" font-family="sans-serif" font-size="12" font-style="italic" lengthAdjust="spacingAndGlyphs" textLength="7" x="766.5" y="50.1387">T</text><line style="stroke: #A80036; stroke-width: 1.5;" x1="645.5" x2="770.5" y1="73" y2="73"/><line style="stroke: #A80036; stroke-width: 1.5;" x1="645.5" x2="770.5" y1="81" y2="81"/><ellipse cx="655.5" cy="92" fill="#84BE84" rx="3" ry="3" style="stroke: #038048; stroke-width: 1.0;"/><text fill="#000000" font-family="sans-serif" font-size="11" font-style="italic" lengthAdjust="spacingAndGlyphs" textLength="101" x="664.5" y="95.2104">compareTo(T): int</text><!--MD5=[50360e3f993a412011964db5c85b86b5]
reverse link java.lang.Comparable to MobilePlan.provided.DateTime--><path codeLine="53" d="M708,122.55 C708,141.84 708,164.4 708,185.86 " fill="none" id="java.lang.Comparable-backto-MobilePlan.provided.DateTime" style="stroke: #A80036; stroke-width: 1.0; stroke-dasharray: 7.0,7.0;"/><polygon fill="none" points="701,122.39,708,102.39,715,122.39,701,122.39" style="stroke: #A80036; stroke-width: 1.0;"/><!--MD5=[9737aea254741de011ebaa4d7374596d]
link MobilePlan.provided.Customer to MobilePlan.provided.Address--><path codeLine="54" d="M477,342.64 C477,366.71 477,394.05 477,420.51 " fill="none" id="MobilePlan.provided.Customer-to-MobilePlan.provided.Address" style="stroke: #A80036; stroke-width: 1.0;"/><polygon fill="#A80036" points="477,425.79,481,416.79,477,420.79,473,416.79,477,425.79" style="stroke: #A80036; stroke-width: 1.0;"/><text fill="#000000" font-family="sans-serif" font-size="13" lengthAdjust="spacingAndGlyphs" textLength="37" x="478" y="392.0669">home</text><text fill="#888888" font-family="sans-serif" font-size="10" lengthAdjust="spacingAndGlyphs" textLength="192" x="315.5" y="684.2822">UMLDoclet 2.0.12, PlantUML 1.2020.16</text><!--MD5=[2e39f70ff3252962569b13b9486d6074]
@startuml
    namespace MobilePlan.provided {

        class Address [[Address.html]] {
            -line_1: String
            -zip: int
            -city: String
            -state: String
            +Address(String, int, String, String)
            +Address(Address)
            +getLine_1(): String
            +setLine_1(String): void
            +getZip(): int
            +setZip(int): void
            +getCity(): String
            +setCity(String): void
            +getState(): String
            +setState(String): void
        }

        class DateTime [[DateTime.html]] {
            -year: int
            -month: int
            -day: int
            -hour: int
            -min: int
            +DateTime(DateTime)
            +DateTime(int, int, int, int, int)
            +compareTo(DateTime): int
            +timestamp(): long
        }

        class Customer [[Customer.html]] {
            -name: String
            -age: int
            +Customer(String, int, Address)
            +Customer(Customer)
            +getName(): String
            +setName(String): void
            +getAge(): int
            +setAge(int): void
        }

        enum ConnectionType [[ConnectionType.html]] {
            {static} +STANDARD
            {static} +PREMIUM
            {static} +TEXT
        }

        interface Matcher<T> [[Matcher.html]] {
            {abstract} +matches(T): boolean
        }

        java.lang.Comparable <|.. DateTime
        Customer - -> Address: home
    }

    namespace java.lang {
        interface Comparable<T> {
            {abstract} +compareTo(T): int
        }
    }

    center footer UMLDoclet 2.0.12, PlantUML 1.2020.16
@enduml

PlantUML version 1.2020.16(Sun Aug 23 22:20:43 CEST 2020)
(APACHE source distribution)
Java Runtime: OpenJDK Runtime Environment
JVM: OpenJDK 64-Bit Server VM
Default Encoding: ANSI_X3.4-1968
Language: en
Country: US
--></g></svg>